<?xml version="1.0" encoding="utf-8"?>
<!-- Generator: Adobe Illustrator 23.0.1, SVG Export Plug-In . SVG Version: 6.00 Build 0)  -->
<svg version="1.1" xmlns="http://www.w3.org/2000/svg" xmlns:xlink="http://www.w3.org/1999/xlink" x="0px" y="0px"
	 viewBox="0 0 672.48 462.56" style="enable-background:new 0 0 672.48 462.56;" xml:space="preserve">
<style type="text/css">
	.st0{fill:#444242;}
	.st1{fill:#FFFFFF;}
	.st2{fill:#444242;stroke:#FFFFFF;stroke-miterlimit:10;}
	.st3{fill:#FFC50D;}
	.st4{fill:#606E86;}
	.st5{font-family:'PrincessSofia';}
	.st6{font-size:218.9432px;}
</style>
<g id="Background">
</g>
<g id="Objects">
	<g>
		<g>
			<g>
				<path class="st0" d="M1211.83,402.44l-84.05-0.49c-8.43-0.05-15.25-6.95-15.2-15.38c0.05-8.43,6.95-15.25,15.37-15.2l84.05,0.49
					c8.43,0.05,15.25,6.95,15.2,15.38C1227.16,395.66,1220.26,402.48,1211.83,402.44z M1127.92,378.37
					c-4.57-0.03-8.31,3.67-8.33,8.24c-0.03,4.57,3.67,8.31,8.24,8.34l84.05,0.49c4.57,0.03,8.31-3.67,8.34-8.24
					c0.03-4.57-3.67-8.31-8.24-8.33L1127.92,378.37z"/>
				<path class="st1" d="M1211.83,402.94l-84.05-0.49c-8.7-0.05-15.75-7.17-15.7-15.88c0.05-8.7,7.17-15.75,15.88-15.7l84.05,0.49
					c8.71,0.05,15.75,7.17,15.7,15.88C1227.66,395.94,1220.54,402.99,1211.83,402.94z M1127.95,371.87
					c-8.15-0.05-14.82,6.55-14.87,14.7c-0.05,8.16,6.55,14.83,14.7,14.88l84.05,0.49c8.16,0.05,14.83-6.55,14.88-14.7
					c0.05-8.15-6.55-14.83-14.71-14.87L1127.95,371.87z M1211.87,395.94l-84.05-0.49c-4.84-0.03-8.76-3.99-8.74-8.84
					c0.03-4.85,3.99-8.76,8.84-8.74l84.05,0.49c4.85,0.03,8.77,3.99,8.74,8.84C1220.69,392.04,1216.72,395.96,1211.87,395.94z
					 M1127.91,378.87c-4.29-0.02-7.81,3.45-7.83,7.74c-0.02,4.3,3.45,7.81,7.74,7.83l84.05,0.49c4.3,0.02,7.81-3.45,7.84-7.74
					c0.02-4.29-3.45-7.81-7.75-7.83L1127.91,378.87z"/>
			</g>
			<g>
				<path class="st0" d="M1169.49,462.05c-11.74-0.07-21.63-7.97-24.47-19.15c-15.08-2.28-26.46-15.29-26.37-30.73l0.02-3.5
					l102.2,0.59l-0.02,3.5c-0.09,15.42-11.6,28.29-26.66,30.41C1191.22,454.33,1181.24,462.11,1169.49,462.05z M1125.88,415.71
					c1.57,11.04,10.77,19.75,22.28,20.49l2.83,0.18l0.41,2.81c1.33,9.13,8.95,15.8,18.12,15.85c9.18,0.05,16.88-6.53,18.3-15.64
					l0.44-2.8l2.83-0.15c11.49-0.61,20.77-9.22,22.46-20.23L1125.88,415.71z"/>
				<path class="st1" d="M1169.49,462.55c-11.68-0.07-21.86-7.95-24.87-19.21c-15.2-2.46-26.56-15.8-26.47-31.17l0.02-4l103.2,0.6
					l-0.02,4c-0.09,15.35-11.57,28.56-26.77,30.86C1191.45,454.85,1181.18,462.61,1169.49,462.55z M1119.16,409.18l-0.02,3
					c-0.09,14.98,11.07,27.98,25.95,30.23l0.33,0.05l0.08,0.32c2.79,10.99,12.65,18.71,23.99,18.77c11.34,0.07,21.3-7.54,24.21-18.5
					l0.09-0.32l0.33-0.05c14.87-2.09,26.15-14.96,26.23-29.92l0.02-3L1119.16,409.18z M1169.53,455.55
					c-9.42-0.05-17.25-6.9-18.61-16.28l-0.35-2.41l-2.43-0.15c-11.56-0.73-21.12-9.53-22.75-20.91l-0.08-0.57l88.84,0.51l-0.09,0.57
					c-1.75,11.35-11.39,20.04-22.93,20.65l-2.43,0.13l-0.38,2.4C1186.86,448.84,1178.96,455.6,1169.53,455.55z M1126.47,416.22
					c1.79,10.64,10.84,18.79,21.73,19.48l3.24,0.21l0.47,3.21c1.29,8.89,8.7,15.38,17.63,15.43c8.93,0.05,16.42-6.35,17.81-15.22
					l0.5-3.2l3.24-0.17c10.87-0.58,19.99-8.63,21.9-19.23L1126.47,416.22z"/>
			</g>
		</g>
		<path class="st2" d="M1225.28,364.92l-111.13-0.64l0.23-40.26c-10.58-18.13-22.95-36.4-35.81-52.91
			c-16.27-20.89-24.79-45.9-24.63-72.34c0.37-64.54,53.18-116.74,117.73-116.37c64.54,0.37,116.73,53.18,116.36,117.72
			c-0.15,26.46-8.96,51.38-25.48,72.07c-11.77,14.75-25.57,34.69-37.05,53.49L1225.28,364.92z M1121.19,357.32l97.13,0.56l0.2-34.19
			l0.5-0.83c11.72-19.28,25.95-39.86,38.06-55.05c15.52-19.45,23.81-42.88,23.95-67.74c0.35-60.68-48.73-110.33-109.4-110.68
			c-60.68-0.35-110.34,48.73-110.69,109.41c-0.14,24.85,7.86,48.37,23.16,68c13.24,17,25.97,35.86,36.82,54.52l0.48,0.83
			L1121.19,357.32z"/>
		<g>
			<path class="st2" d="M1176.18,58.02c-1.66-0.01-2.99-1.36-2.98-3.02l0.3-52c0.01-1.66,1.36-2.99,3.02-2.98
				c1.66,0.01,2.99,1.36,2.98,3.02l-0.3,52C1179.19,56.69,1177.83,58.02,1176.18,58.02z"/>
			<path class="st2" d="M1255.75,77.94c-0.53,0-1.06-0.15-1.55-0.44c-1.41-0.87-1.85-2.71-0.99-4.13l27.21-44.31
				c0.87-1.41,2.71-1.86,4.13-0.99c1.41,0.87,1.85,2.71,0.99,4.13l-27.21,44.31C1257.76,77.44,1256.76,77.95,1255.75,77.94z"/>
			<path class="st2" d="M1304.9,141c-1.08-0.01-2.12-0.6-2.65-1.63c-0.76-1.47-0.18-3.28,1.29-4.04l46.24-23.8
				c1.48-0.76,3.28-0.18,4.04,1.29c0.76,1.47,0.18,3.28-1.29,4.04l-46.24,23.8C1305.84,140.89,1305.36,141,1304.9,141z"/>
			<path class="st2" d="M1371.35,215.48c-0.06,0-0.13,0-0.19-0.01l-51.87-3.61c-1.65-0.12-2.9-1.55-2.78-3.2
				c0.11-1.65,1.54-2.89,3.2-2.78l51.87,3.61c1.65,0.12,2.9,1.55,2.78,3.2C1374.25,214.28,1372.92,215.49,1371.35,215.48z"/>
			<path class="st2" d="M1337.64,320.01c-0.59,0-1.19-0.18-1.71-0.55l-42.49-29.98c-1.35-0.96-1.68-2.83-0.72-4.18
				c0.95-1.35,2.83-1.68,4.18-0.72l42.49,29.98c1.35,0.96,1.68,2.83,0.72,4.18C1339.52,319.58,1338.59,320.02,1337.64,320.01z"/>
			<path class="st2" d="M1088.82,76.98c-1.01-0.01-2-0.53-2.56-1.46l-26.69-44.63c-0.85-1.42-0.39-3.26,1.03-4.11
				c1.42-0.85,3.26-0.39,4.11,1.03l26.69,44.63c0.85,1.42,0.39,3.26-1.03,4.11C1089.89,76.85,1089.35,76.98,1088.82,76.98z"/>
			<path class="st2" d="M1038.95,139.46c-0.47,0-0.94-0.11-1.38-0.35l-45.96-24.33c-1.46-0.78-2.02-2.59-1.25-4.06
				c0.78-1.46,2.59-2.02,4.06-1.25l45.96,24.33c1.46,0.78,2.02,2.59,1.25,4.06C1041.08,138.89,1040.03,139.47,1038.95,139.46z"/>
			<path class="st2" d="M971.64,213.18c-1.57-0.01-2.88-1.24-2.97-2.83c-0.1-1.65,1.17-3.07,2.82-3.17l51.91-3.01
				c1.66-0.09,3.07,1.17,3.17,2.82c0.1,1.65-1.17,3.07-2.82,3.17l-51.91,3.01C971.77,213.18,971.7,213.18,971.64,213.18z"/>
			<path class="st2" d="M1004.14,318.09c-0.95-0.01-1.88-0.46-2.46-1.3c-0.94-1.36-0.59-3.23,0.77-4.17l42.83-29.48
				c1.36-0.94,3.23-0.6,4.17,0.77c0.94,1.36,0.59,3.23-0.77,4.17l-42.83,29.48C1005.33,317.92,1004.73,318.09,1004.14,318.09z"/>
		</g>
		<g>
			
				<rect x="1138.3" y="235.56" transform="matrix(0.9781 -0.2083 0.2083 0.9781 -36.9483 244.4977)" class="st2" width="8" height="124.2"/>
			
				<rect x="1134.75" y="295.8" transform="matrix(0.2152 -0.9766 0.9766 0.2152 647.999 1404.9401)" class="st2" width="126.76" height="7"/>
			<polygon class="st2" points="1164.28,278.82 1157.43,251.94 1138.33,264.56 1135.58,260.39 1160.54,243.9 1165.43,263.09 
				1178.45,231.92 1188.86,262.18 1207.64,253.72 1209.69,258.28 1185.91,268.99 1178,245.98 			"/>
		</g>
	</g>
	<text transform="matrix(4.489660e-11 -1 1 4.489660e-11 903.0816 402.2083)" class="st4 st5 st6">glows</text>
	<g>
		<path class="st3" d="M524.87,360.14H413.74v-40.26c-10.69-18.06-23.16-36.27-36.12-52.7c-16.39-20.79-25.05-45.76-25.05-72.2
			c0-64.54,52.51-117.05,117.05-117.05c64.54,0,117.04,52.51,117.04,117.05c0,26.46-8.67,51.43-25.06,72.22
			c-11.68,14.82-25.37,34.83-36.74,53.7V360.14z"/>
		<g>
			<path class="st2" d="M511.05,402.21h-84.05c-8.43,0-15.29-6.86-15.29-15.29c0-8.43,6.86-15.29,15.29-15.29h84.05
				c8.43,0,15.29,6.86,15.29,15.29C526.34,395.35,519.48,402.21,511.05,402.21z"/>
			<path class="st2" d="M469.05,462.06c-11.74,0-21.68-7.84-24.58-19.01c-15.09-2.19-26.55-15.13-26.55-30.57v-3.5h102.2v3.5
				c0,15.42-11.43,28.36-26.49,30.57C490.74,454.22,480.79,462.06,469.05,462.06z"/>
		</g>
		<path class="st3" d="M524.28,364.62H413.15v-40.26c-10.69-18.06-23.16-36.27-36.12-52.7c-16.39-20.79-25.05-45.76-25.05-72.2
			c0-64.54,52.51-117.05,117.05-117.05c64.54,0,117.04,52.51,117.04,117.05c0,26.46-8.67,51.43-25.06,72.22
			c-11.68,14.82-25.37,34.83-36.74,53.7V364.62z M420.15,357.62h97.13v-34.19l0.5-0.83c11.61-19.35,25.72-40.01,37.74-55.26
			c15.41-19.54,23.56-43.01,23.56-67.88c0-60.68-49.36-110.05-110.04-110.05c-60.68,0-110.05,49.37-110.05,110.05
			c0,24.85,8.14,48.32,23.55,67.86c13.34,16.93,26.18,35.71,37.13,54.31l0.48,0.82V357.62z"/>
		<g>
			<path class="st3" d="M473.4,58c-1.66,0-3-1.34-3-3V3c0-1.66,1.34-3,3-3s3,1.34,3,3v52C476.4,56.66,475.06,58,473.4,58z"/>
			<path class="st3" d="M553.09,77.47c-0.53,0-1.07-0.14-1.55-0.44c-1.42-0.86-1.87-2.7-1.01-4.12l26.95-44.47
				c0.86-1.42,2.7-1.87,4.12-1.01c1.42,0.86,1.87,2.7,1.01,4.12l-26.95,44.47C555.09,76.96,554.1,77.47,553.09,77.47z"/>
			<path class="st3" d="M602.6,140.24c-1.08,0-2.13-0.59-2.66-1.61c-0.77-1.47-0.2-3.28,1.27-4.05l46.1-24.06
				c1.47-0.77,3.28-0.2,4.05,1.27c0.77,1.47,0.2,3.28-1.27,4.05l-46.1,24.06C603.54,140.13,603.07,140.24,602.6,140.24z"/>
			<path class="st3" d="M669.48,214.34c-0.06,0-0.13,0-0.19-0.01l-51.89-3.31c-1.65-0.11-2.91-1.53-2.8-3.19
				c0.11-1.65,1.53-2.9,3.19-2.8l51.89,3.31c1.65,0.11,2.91,1.53,2.8,3.19C672.37,213.12,671.05,214.34,669.48,214.34z"/>
			<path class="st3" d="M636.38,319.06c-0.59,0-1.19-0.17-1.71-0.54L592,288.79c-1.36-0.95-1.69-2.82-0.75-4.18
				c0.95-1.36,2.82-1.69,4.18-0.75l42.66,29.73c1.36,0.95,1.69,2.82,0.75,4.18C638.26,318.61,637.32,319.06,636.38,319.06z"/>
			<path class="st3" d="M386.16,77.47c-1.01,0-2-0.51-2.57-1.45l-26.95-44.47c-0.86-1.42-0.41-3.26,1.01-4.12
				c1.42-0.86,3.26-0.41,4.12,1.01l26.95,44.47c0.86,1.42,0.41,3.26-1.01,4.12C387.22,77.33,386.69,77.47,386.16,77.47z"/>
			<path class="st3" d="M336.64,140.24c-0.47,0-0.94-0.11-1.39-0.34l-46.1-24.06c-1.47-0.77-2.04-2.58-1.27-4.05
				c0.77-1.47,2.58-2.04,4.05-1.27l46.1,24.06c1.47,0.77,2.04,2.58,1.27,4.05C338.77,139.65,337.73,140.24,336.64,140.24z"/>
			<path class="st3" d="M269.76,214.34c-1.57,0-2.89-1.22-2.99-2.81c-0.11-1.65,1.15-3.08,2.8-3.19l51.89-3.31
				c1.66-0.1,3.08,1.15,3.19,2.8c0.11,1.65-1.15,3.08-2.8,3.19l-51.89,3.31C269.89,214.34,269.83,214.34,269.76,214.34z"/>
			<path class="st3" d="M302.87,319.06c-0.95,0-1.88-0.45-2.46-1.29c-0.95-1.36-0.61-3.23,0.75-4.18l42.66-29.73
				c1.36-0.95,3.23-0.61,4.18,0.75c0.95,1.36,0.61,3.23-0.75,4.18l-42.66,29.73C304.06,318.89,303.46,319.06,302.87,319.06z"/>
		</g>
		<g>
			
				<rect x="436.91" y="235.74" transform="matrix(0.9768 -0.214 0.214 0.9768 -53.5167 101.2376)" class="st1" width="8" height="124.2"/>
			
				<rect x="433.37" y="295.65" transform="matrix(0.2096 -0.9778 0.9778 0.2096 100.1414 722.1766)" class="st1" width="126.76" height="7"/>
			<polygon class="st1" points="462.78,278.87 455.78,252.03 436.75,264.76 433.97,260.61 458.84,243.97 463.84,263.13 
				476.68,231.89 487.26,262.09 506,253.52 508.08,258.07 484.36,268.91 476.31,245.95 			"/>
		</g>
	</g>
	<text transform="matrix(4.489660e-11 -1 1 4.489660e-11 201.1967 402.2083)" class="st4 st5 st6">glows</text>
	<text transform="matrix(4.489660e-11 -1 1 4.489660e-11 201.1968 -103.9079)" class="st4 st5 st6">glows</text>
</g>
</svg>
