<?xml version="1.0" encoding="utf-8"?>
<!-- Generator: Adobe Illustrator 23.0.1, SVG Export Plug-In . SVG Version: 6.00 Build 0)  -->
<svg version="1.1" xmlns="http://www.w3.org/2000/svg" xmlns:xlink="http://www.w3.org/1999/xlink" x="0px" y="0px"
	 viewBox="0 0 672.48 462.56" style="enable-background:new 0 0 672.48 462.56;" xml:space="preserve">
<style type="text/css">
	.st0{fill:#444242;}
	.st1{fill:#FFFFFF;}
	.st2{fill:#444242;stroke:#FFFFFF;stroke-miterlimit:10;}
	.st3{fill:#606E86;}
	.st4{font-family:'PrincessSofia';}
	.st5{font-size:218.9432px;}
	.st6{fill:#FFC50D;}
</style>
<g id="Background">
</g>
<g id="Objects">
	<g>
		<g>
			<g>
				<path class="st0" d="M509.95,402.44l-84.05-0.49c-8.43-0.05-15.25-6.95-15.2-15.38c0.05-8.43,6.95-15.25,15.37-15.2l84.05,0.49
					c8.43,0.05,15.25,6.95,15.2,15.38C525.28,395.66,518.38,402.48,509.95,402.44z M426.03,378.37c-4.57-0.03-8.31,3.67-8.33,8.24
					c-0.03,4.57,3.67,8.31,8.24,8.34l84.05,0.49c4.57,0.03,8.31-3.67,8.34-8.24c0.03-4.57-3.67-8.31-8.24-8.33L426.03,378.37z"/>
				<path class="st1" d="M509.94,402.94l-84.05-0.49c-8.7-0.05-15.75-7.17-15.7-15.88c0.05-8.7,7.17-15.75,15.88-15.7l84.05,0.49
					c8.71,0.05,15.75,7.17,15.7,15.88C525.78,395.94,518.65,402.99,509.94,402.94z M426.07,371.87c-8.15-0.05-14.82,6.55-14.87,14.7
					c-0.05,8.16,6.55,14.83,14.7,14.88l84.05,0.49c8.16,0.05,14.83-6.55,14.88-14.7c0.05-8.15-6.55-14.83-14.71-14.87L426.07,371.87
					z M509.98,395.94l-84.05-0.49c-4.84-0.03-8.76-3.99-8.74-8.84c0.03-4.85,3.99-8.76,8.84-8.74l84.05,0.49
					c4.85,0.03,8.77,3.99,8.74,8.84C518.8,392.04,514.83,395.96,509.98,395.94z M426.03,378.87c-4.29-0.02-7.81,3.45-7.83,7.74
					c-0.02,4.3,3.45,7.81,7.74,7.83l84.05,0.49c4.3,0.02,7.81-3.45,7.84-7.74c0.02-4.29-3.45-7.81-7.75-7.83L426.03,378.87z"/>
			</g>
			<g>
				<path class="st0" d="M467.6,462.05c-11.74-0.07-21.63-7.97-24.47-19.15c-15.08-2.28-26.46-15.29-26.37-30.73l0.02-3.5
					l102.2,0.59l-0.02,3.5c-0.09,15.42-11.6,28.29-26.66,30.41C489.34,454.33,479.35,462.11,467.6,462.05z M424,415.71
					c1.57,11.04,10.77,19.75,22.28,20.49l2.83,0.18l0.41,2.81c1.33,9.13,8.95,15.8,18.12,15.85c9.18,0.05,16.88-6.53,18.31-15.64
					l0.44-2.8l2.83-0.15c11.49-0.61,20.77-9.22,22.46-20.23L424,415.71z"/>
				<path class="st1" d="M467.6,462.55c-11.68-0.07-21.86-7.95-24.87-19.21c-15.2-2.46-26.56-15.8-26.47-31.17l0.02-4l103.2,0.6
					l-0.02,4c-0.09,15.35-11.57,28.56-26.77,30.86C489.56,454.85,479.29,462.61,467.6,462.55z M417.28,409.18l-0.02,3
					c-0.09,14.98,11.07,27.98,25.95,30.23l0.33,0.05l0.08,0.32c2.79,10.99,12.65,18.71,23.99,18.77c11.34,0.07,21.3-7.54,24.21-18.5
					l0.09-0.32l0.33-0.05c14.87-2.09,26.15-14.96,26.23-29.92l0.02-3L417.28,409.18z M467.64,455.55
					c-9.42-0.05-17.25-6.9-18.61-16.28l-0.35-2.41l-2.43-0.15c-11.56-0.73-21.12-9.53-22.75-20.91l-0.08-0.57l88.84,0.51l-0.09,0.57
					c-1.75,11.35-11.39,20.04-22.93,20.65l-2.43,0.13l-0.38,2.4C484.98,448.84,477.07,455.6,467.64,455.55z M424.58,416.22
					c1.79,10.64,10.84,18.79,21.73,19.48l3.24,0.21l0.47,3.21c1.29,8.89,8.7,15.38,17.63,15.43c8.93,0.05,16.42-6.35,17.81-15.22
					l0.5-3.2l3.24-0.17c10.87-0.58,19.99-8.63,21.9-19.23L424.58,416.22z"/>
			</g>
		</g>
		<path class="st2" d="M523.39,364.92l-111.13-0.64l0.23-40.26c-10.58-18.13-22.95-36.4-35.81-52.91
			c-16.27-20.89-24.79-45.9-24.63-72.34c0.37-64.54,53.18-116.74,117.73-116.37c64.54,0.37,116.73,53.18,116.36,117.72
			c-0.15,26.46-8.96,51.38-25.48,72.07c-11.77,14.75-25.57,34.69-37.05,53.49L523.39,364.92z M419.31,357.32l97.13,0.56l0.2-34.19
			l0.5-0.83c11.72-19.28,25.95-39.86,38.06-55.05c15.52-19.45,23.81-42.88,23.95-67.74c0.35-60.68-48.73-110.33-109.4-110.68
			c-60.68-0.35-110.34,48.73-110.69,109.41c-0.14,24.85,7.86,48.37,23.16,68c13.24,17,25.97,35.86,36.82,54.52l0.48,0.83
			L419.31,357.32z"/>
		<g>
			<path class="st2" d="M474.29,58.02c-1.66-0.01-2.99-1.36-2.98-3.02l0.3-52c0.01-1.66,1.36-2.99,3.02-2.98
				c1.66,0.01,2.99,1.36,2.98,3.02l-0.3,52C477.3,56.69,475.95,58.02,474.29,58.02z"/>
			<path class="st2" d="M553.86,77.94c-0.53,0-1.06-0.15-1.55-0.44c-1.41-0.87-1.85-2.71-0.99-4.13l27.21-44.31
				c0.87-1.41,2.71-1.86,4.13-0.99c1.41,0.87,1.85,2.71,0.99,4.13l-27.21,44.31C555.87,77.44,554.88,77.95,553.86,77.94z"/>
			<path class="st2" d="M603.01,141c-1.08-0.01-2.12-0.6-2.65-1.63c-0.76-1.47-0.18-3.28,1.29-4.04l46.24-23.8
				c1.48-0.76,3.28-0.18,4.04,1.29c0.76,1.47,0.18,3.28-1.29,4.04l-46.24,23.8C603.96,140.89,603.48,141,603.01,141z"/>
			<path class="st2" d="M669.47,215.48c-0.06,0-0.13,0-0.19-0.01l-51.87-3.61c-1.65-0.12-2.9-1.55-2.78-3.2
				c0.11-1.65,1.54-2.89,3.2-2.78l51.87,3.61c1.65,0.12,2.9,1.55,2.78,3.2C672.36,214.28,671.04,215.49,669.47,215.48z"/>
			<path class="st2" d="M635.75,320.01c-0.59,0-1.19-0.18-1.71-0.55l-42.49-29.98c-1.35-0.96-1.68-2.83-0.72-4.18
				c0.95-1.35,2.83-1.68,4.18-0.72l42.49,29.98c1.35,0.96,1.68,2.83,0.72,4.18C637.64,319.58,636.7,320.02,635.75,320.01z"/>
			<path class="st2" d="M386.93,76.98c-1.01-0.01-2-0.53-2.56-1.46l-26.69-44.63c-0.85-1.42-0.39-3.26,1.03-4.11
				c1.42-0.85,3.26-0.39,4.11,1.03l26.69,44.63c0.85,1.42,0.39,3.26-1.03,4.11C388,76.85,387.46,76.98,386.93,76.98z"/>
			<path class="st2" d="M337.06,139.46c-0.47,0-0.94-0.11-1.38-0.35l-45.96-24.33c-1.46-0.78-2.02-2.59-1.25-4.06
				c0.78-1.46,2.59-2.02,4.06-1.25l45.96,24.33c1.46,0.78,2.02,2.59,1.25,4.06C339.19,138.89,338.14,139.47,337.06,139.46z"/>
			<path class="st2" d="M269.75,213.18c-1.57-0.01-2.88-1.24-2.97-2.83c-0.1-1.65,1.17-3.07,2.82-3.17l51.91-3.01
				c1.66-0.09,3.07,1.17,3.17,2.82c0.1,1.65-1.17,3.07-2.82,3.17l-51.91,3.01C269.88,213.18,269.82,213.18,269.75,213.18z"/>
			<path class="st2" d="M302.25,318.09c-0.95-0.01-1.88-0.46-2.46-1.3c-0.94-1.36-0.59-3.23,0.77-4.17l42.83-29.48
				c1.36-0.94,3.23-0.6,4.17,0.77c0.94,1.36,0.59,3.23-0.77,4.17l-42.83,29.48C303.45,317.92,302.85,318.09,302.25,318.09z"/>
		</g>
		<g>
			
				<rect x="436.42" y="235.56" transform="matrix(0.9781 -0.2083 0.2083 0.9781 -52.3475 98.2792)" class="st2" width="8" height="124.2"/>
			
				<rect x="432.87" y="295.8" transform="matrix(0.2152 -0.9766 0.9766 0.2152 97.1674 719.502)" class="st2" width="126.76" height="7"/>
			<polygon class="st2" points="462.39,278.82 455.55,251.94 436.45,264.56 433.69,260.39 458.66,243.9 463.54,263.09 
				476.56,231.92 486.97,262.18 505.76,253.72 507.81,258.28 484.03,268.99 476.11,245.98 			"/>
		</g>
	</g>
	<text transform="matrix(4.489660e-11 -1 1 4.489660e-11 201.1967 402.2083)" class="st3 st4 st5">glows</text>
	<g>
		<path class="st6" d="M-177.01,360.14h-111.13v-40.26c-10.69-18.06-23.16-36.27-36.12-52.7c-16.39-20.79-25.05-45.76-25.05-72.2
			c0-64.54,52.51-117.05,117.05-117.05c64.54,0,117.04,52.51,117.04,117.05c0,26.46-8.67,51.43-25.06,72.22
			c-11.68,14.82-25.37,34.83-36.74,53.7V360.14z"/>
		<g>
			<path class="st2" d="M-190.84,402.21h-84.05c-8.43,0-15.29-6.86-15.29-15.29c0-8.43,6.86-15.29,15.29-15.29h84.05
				c8.43,0,15.29,6.86,15.29,15.29C-175.55,395.35-182.41,402.21-190.84,402.21z"/>
			<path class="st2" d="M-232.84,462.06c-11.74,0-21.68-7.84-24.58-19.01c-15.09-2.19-26.55-15.13-26.55-30.57v-3.5h102.2v3.5
				c0,15.42-11.43,28.36-26.49,30.57C-211.15,454.22-221.09,462.06-232.84,462.06z"/>
		</g>
		<path class="st6" d="M-177.61,364.62h-111.13v-40.26c-10.69-18.06-23.16-36.27-36.12-52.7c-16.39-20.79-25.05-45.76-25.05-72.2
			c0-64.54,52.51-117.05,117.05-117.05c64.54,0,117.04,52.51,117.04,117.05c0,26.46-8.67,51.43-25.06,72.22
			c-11.68,14.82-25.37,34.83-36.74,53.7V364.62z M-281.74,357.62h97.13v-34.19l0.5-0.83c11.61-19.35,25.72-40.01,37.74-55.26
			c15.41-19.54,23.56-43.01,23.56-67.88c0-60.68-49.36-110.05-110.04-110.05c-60.68,0-110.05,49.37-110.05,110.05
			c0,24.85,8.14,48.32,23.55,67.86c13.34,16.93,26.18,35.71,37.13,54.31l0.48,0.82V357.62z"/>
		<g>
			<path class="st6" d="M-228.48,58c-1.66,0-3-1.34-3-3V3c0-1.66,1.34-3,3-3c1.66,0,3,1.34,3,3v52
				C-225.48,56.66-226.82,58-228.48,58z"/>
			<path class="st6" d="M-148.8,77.47c-0.53,0-1.07-0.14-1.55-0.44c-1.42-0.86-1.87-2.7-1.01-4.12l26.95-44.47
				c0.86-1.42,2.7-1.87,4.12-1.01c1.42,0.86,1.87,2.7,1.01,4.12l-26.95,44.47C-146.79,76.96-147.78,77.47-148.8,77.47z"/>
			<path class="st6" d="M-99.28,140.24c-1.08,0-2.13-0.59-2.66-1.61c-0.77-1.47-0.2-3.28,1.27-4.05l46.1-24.06
				c1.47-0.77,3.28-0.2,4.05,1.27c0.77,1.47,0.2,3.28-1.27,4.05l-46.1,24.06C-98.34,140.13-98.82,140.24-99.28,140.24z"/>
			<path class="st6" d="M-32.4,214.34c-0.06,0-0.13,0-0.19-0.01l-51.89-3.31c-1.65-0.11-2.91-1.53-2.8-3.19
				c0.11-1.65,1.53-2.9,3.19-2.8l51.89,3.31c1.65,0.11,2.91,1.53,2.8,3.19C-29.51,213.12-30.83,214.34-32.4,214.34z"/>
			<path class="st6" d="M-65.51,319.06c-0.59,0-1.19-0.17-1.71-0.54l-42.66-29.73c-1.36-0.95-1.69-2.82-0.75-4.18
				c0.95-1.36,2.82-1.69,4.18-0.75l42.66,29.73c1.36,0.95,1.69,2.82,0.75,4.18C-63.63,318.61-64.56,319.06-65.51,319.06z"/>
			<path class="st6" d="M-315.73,77.47c-1.01,0-2-0.51-2.57-1.45l-26.95-44.47c-0.86-1.42-0.41-3.26,1.01-4.12
				c1.42-0.86,3.26-0.41,4.12,1.01l26.95,44.47c0.86,1.42,0.41,3.26-1.01,4.12C-314.66,77.33-315.2,77.47-315.73,77.47z"/>
			<path class="st6" d="M-365.24,140.24c-0.47,0-0.94-0.11-1.39-0.34l-46.1-24.06c-1.47-0.77-2.04-2.58-1.27-4.05
				c0.77-1.47,2.58-2.04,4.05-1.27l46.1,24.06c1.47,0.77,2.04,2.58,1.27,4.05C-363.11,139.65-364.16,140.24-365.24,140.24z"/>
			<path class="st6" d="M-432.12,214.34c-1.57,0-2.89-1.22-2.99-2.81c-0.11-1.65,1.15-3.08,2.8-3.19l51.89-3.31
				c1.66-0.1,3.08,1.15,3.19,2.8c0.11,1.65-1.15,3.08-2.8,3.19l-51.89,3.31C-431.99,214.34-432.06,214.34-432.12,214.34z"/>
			<path class="st6" d="M-399.01,319.06c-0.95,0-1.88-0.45-2.46-1.29c-0.95-1.36-0.61-3.23,0.75-4.18l42.66-29.73
				c1.36-0.95,3.23-0.61,4.18,0.75c0.95,1.36,0.61,3.23-0.75,4.18l-42.66,29.73C-397.82,318.89-398.42,319.06-399.01,319.06z"/>
		</g>
		<g>
			
				<rect x="-264.97" y="235.74" transform="matrix(0.9768 -0.214 0.214 0.9768 -69.7716 -48.9419)" class="st1" width="8" height="124.2"/>
			
				<rect x="-268.51" y="295.65" transform="matrix(0.2096 -0.9778 0.9778 0.2096 -454.6501 35.8778)" class="st1" width="126.76" height="7"/>
			<polygon class="st1" points="-239.11,278.87 -246.11,252.03 -265.13,264.76 -267.91,260.61 -243.04,243.97 -238.04,263.13 
				-225.21,231.89 -214.62,262.09 -195.89,253.52 -193.81,258.07 -217.53,268.91 -225.58,245.95 			"/>
		</g>
	</g>
	<text transform="matrix(4.489660e-11 -1 1 4.489660e-11 -500.6882 402.2083)" class="st3 st4 st5">glows</text>
	<text transform="matrix(4.489660e-11 -1 1 4.489660e-11 -500.6881 -103.9079)" class="st3 st4 st5">glows</text>
</g>
</svg>
