<?xml version="1.0" encoding="utf-8"?>
<!-- Generator: Adobe Illustrator 23.0.1, SVG Export Plug-In . SVG Version: 6.00 Build 0)  -->
<svg version="1.1" id="Layer_1" xmlns="http://www.w3.org/2000/svg" xmlns:xlink="http://www.w3.org/1999/xlink" x="0px" y="0px"
	 viewBox="0 0 651.66 463.03" style="enable-background:new 0 0 651.66 463.03;" xml:space="preserve">
<style type="text/css">
	.st0{enable-background:new    ;}
	.st1{fill:#606E86;}
	.st2{fill:#FFC50D;}
	.st3{fill:#444242;stroke:#FFFFFF;stroke-miterlimit:10;}
	.st4{fill:#FFFFFF;}
</style>
<g id="Background">
</g>
<g class="st0">
	<path class="st1" d="M94.31,333.99c0.87-1.73,1.18-2.94,0.93-3.62c-0.25-0.68-0.37-1.51-0.37-2.51c1.24-0.74,1.92-1.21,2.04-1.39
		c0.12-0.19,0.31-0.34,0.56-0.46c1.73,0.62,2.88,0.96,3.43,1.02c0.56,0.06,1.08-0.21,1.58-0.83c1.11,0.74,2.04,0.99,2.78,0.74
		c-0.12-1.49-0.15-2.29-0.09-2.41c0.06-0.12,0.22-0.31,0.46-0.56c1.49-0.37,2.57-0.56,3.25-0.56c0.68,0,1.27,0.25,1.76,0.74
		c0.5-0.37,0.93-0.37,1.3,0c0.37,0.37,0.81,0.37,1.3,0c1.49,0.74,2.23,1.18,2.23,1.3c0,0.12,0.06,0.25,0.19,0.37
		c1.61-0.12,2.76,0.03,3.43,0.46c0.68,0.43,1.33,0.83,1.95,1.21c0.62,0.12,1.33,0.09,2.14-0.09c0.81-0.19,1.46-0.03,1.95,0.46
		c1.49-0.49,2.57-0.62,3.25-0.37c0.68,0.25,1.27,0.06,1.76-0.56c0.74,0.25,1.46,0.28,2.13,0.09c0.68-0.19,1.33-0.34,1.95-0.46
		c1.24,0,1.98-0.03,2.23-0.09c0.25-0.06,0.68-0.09,1.3-0.09c0.25,0.12,0.59,0.12,1.02,0c0.44-0.12,0.77-0.19,1.02-0.19
		c1.61,0.25,2.78,0.25,3.53,0c1.24,0.25,2.11,0.31,2.6,0.19c0.5-0.12,0.93-0.06,1.3,0.19c1.49,0,2.38-0.06,2.69-0.19
		c0.31-0.12,0.71-0.19,1.21-0.19c0.99,0.12,1.55,0.12,1.67,0c0.12-0.12,0.31-0.19,0.56-0.19c0.37,0.12,0.77,0.25,1.21,0.37
		c0.44,0.12,0.77,0.25,1.02,0.37c1.61-0.25,2.69-0.37,3.25-0.37s1.15-0.06,1.76-0.19c0.5,0,1.02,0,1.58,0
		c0.56,0,1.21-0.06,1.95-0.19c0.74,0,1.3-0.03,1.67-0.09c0.37-0.06,0.74,0.03,1.11,0.28c1.36-0.12,2.07-0.03,2.14,0.28
		c0.06,0.31,0.28,0.46,0.65,0.46c0.74-0.12,1.55-0.21,2.41-0.28c0.87-0.06,1.67-0.09,2.41-0.09c1.86,0.37,2.97,0.5,3.34,0.37
		c0.37-0.12,0.68-0.06,0.93,0.19c0.49-0.25,1.08-0.34,1.76-0.28c0.68,0.06,1.33,0.22,1.95,0.46c1.24,0,2.23-0.06,2.97-0.19
		c0.74-0.12,1.49,0.12,2.23,0.74c1.86-0.12,3.03-0.15,3.53-0.09c0.49,0.06,1.11,0.16,1.86,0.28c0.86,0,1.39,0.06,1.58,0.19
		c0.19,0.12,0.46,0.19,0.84,0.19c1.48-0.12,2.41,0.12,2.78,0.74c1.36,0.12,2.07,0.12,2.13,0c0.06-0.12,0.15-0.12,0.28,0
		c0.37,0,0.74,0.09,1.11,0.28c0.37,0.19,0.74,0.16,1.11-0.09c0.86,0.25,1.42,0.5,1.67,0.74c0.25,0.25,0.56,0.25,0.93,0
		c0.86,0.37,1.39,0.56,1.58,0.56c0.19,0,0.4-0.06,0.65-0.19c1.24,0.5,2.1,0.77,2.6,0.84c0.49,0.06,0.99,0.16,1.49,0.28
		c1.24,0.5,1.86,0.81,1.86,0.93c0,0.12,0.06,0.19,0.19,0.19c1.73,0.25,2.78,0.46,3.16,0.65c0.37,0.19,0.86,0.22,1.49,0.09
		c0.37,0.37,0.84,0.59,1.39,0.65c0.56,0.06,1.08,0.22,1.58,0.46c0.62,0.25,1.14,0.46,1.58,0.65c0.43,0.19,0.96,0.28,1.58,0.28
		c0.25,0.25,0.59,0.53,1.02,0.83c0.43,0.31,0.96,0.34,1.58,0.09c0.25,0.37,0.56,0.71,0.93,1.02c0.37,0.31,0.86,0.4,1.49,0.28
		c1.24,0.87,2.04,1.42,2.41,1.67c0.37,0.25,0.68,0.5,0.93,0.74l2.97,0.74c0.49,0.99,0.8,1.52,0.93,1.58
		c0.12,0.06,0.19,0.22,0.19,0.46c0.99,0.37,1.89,0.87,2.69,1.49c0.8,0.62,1.51,1.24,2.13,1.86c1.61,1.11,2.6,1.95,2.97,2.51
		c0.37,0.56,0.86,0.96,1.49,1.21c0.25,0.5,0.52,0.9,0.84,1.21c0.31,0.31,0.59,0.65,0.84,1.02c0.99,1.11,1.64,1.76,1.95,1.95
		c0.31,0.19,0.52,0.53,0.65,1.02c0.74,1.36,1.36,2.17,1.86,2.41c-0.12,0.74,0.06,1.18,0.56,1.3c0.49,0.12,0.74,0.5,0.74,1.11
		c1.11,1.24,1.76,2.11,1.95,2.6c0.19,0.5,0.59,0.93,1.21,1.3c0.86,1.61,1.55,2.85,2.04,3.71c0.49,0.87,0.99,1.8,1.49,2.79
		c0.62,0.62,0.99,1.11,1.11,1.49c0.12,0.37,0.37,0.68,0.74,0.93c0.37,0.87,0.59,1.58,0.65,2.13c0.06,0.56,0.21,1.08,0.46,1.58
		l0.93,2.04c0.12,1.49,0.25,2.23,0.37,2.23c0.12,0,0.25,0.12,0.37,0.37c-0.12,0.87-0.03,1.52,0.28,1.95
		c0.31,0.43,0.34,1.08,0.09,1.95c-0.25,1.24-0.37,2.29-0.37,3.16c-0.25,0.62-0.34,1.3-0.28,2.04c0.06,0.74,0.03,1.42-0.09,2.04
		c-0.12,0.37-0.31,0.77-0.56,1.21c-0.25,0.43-0.37,0.9-0.37,1.39c-0.5,0.86-0.68,1.36-0.56,1.48c0.12,0.12,0.12,0.31,0,0.56
		c-0.62,1.73-1.05,2.91-1.3,3.53c-0.25,0.62-0.5,1.3-0.74,2.04c-0.74,1.11-1.21,1.7-1.39,1.76c-0.19,0.06-0.34,0.21-0.46,0.46
		c-0.74,0.86-1.15,1.49-1.21,1.86c-0.06,0.37-0.22,0.68-0.46,0.93c-0.62,0.74-1.11,1.27-1.49,1.58c-0.37,0.31-0.68,0.77-0.93,1.39
		c-1.48,0.74-2.26,1.24-2.32,1.49c-0.06,0.25-0.22,0.49-0.46,0.74c-1.36,0-2.13,0.09-2.32,0.28c-0.19,0.19-0.4,0.4-0.65,0.65
		c-0.87-0.12-1.67,0.03-2.41,0.46c-0.74,0.43-1.49,0.59-2.23,0.46c-0.5-0.12-0.93-0.4-1.3-0.84c-0.37-0.43-0.93-0.71-1.67-0.83
		c-0.5-0.25-0.96-0.31-1.39-0.19c-0.44,0.12-0.96,0.12-1.58,0c-0.62-0.62-0.9-1.11-0.84-1.49c0.06-0.37-0.09-0.56-0.46-0.56
		c0-1.86-0.09-2.88-0.28-3.06s-0.28-0.59-0.28-1.21c0.25-0.25,0.59-0.43,1.02-0.56c0.43-0.12,0.77-0.31,1.02-0.56
		c1.98-0.25,3.28-0.74,3.9-1.48c0.62-0.25,1.17-0.56,1.67-0.93c0.49-0.37,0.99-0.68,1.49-0.93c0.86-1.11,1.55-1.89,2.04-2.32
		c0.49-0.43,0.99-0.9,1.49-1.39c0-0.37,0.15-0.68,0.46-0.93c0.31-0.25,0.53-0.56,0.65-0.93l0.93-1.86c0.74-1.73,1.49-2.85,2.23-3.34
		c0-0.87,0.31-1.74,0.93-2.6c0-0.37,0-0.87,0-1.49c0-0.62,0.12-1.05,0.37-1.3c0.37-1.48,0.59-2.23,0.65-2.23
		c0.06,0,0.15-0.12,0.28-0.37c0.12-0.37,0.19-0.74,0.19-1.11c0-0.37,0-0.74,0-1.11c-0.12-1.49-0.25-2.38-0.37-2.69
		c-0.12-0.31-0.19-0.71-0.19-1.21c0.12-0.62,0.15-1.02,0.09-1.21c-0.06-0.19,0.03-0.46,0.28-0.84c-0.25-1.11-0.4-1.82-0.46-2.13
		c-0.06-0.31-0.09-0.59-0.09-0.83c-0.74-1.61-1.27-2.47-1.58-2.6c-0.31-0.12-0.59-0.37-0.84-0.74c0.25-0.99,0.03-1.86-0.65-2.6
		c-0.68-0.74-1.21-1.61-1.58-2.6c-1.24-1.24-2.54-2.35-3.9-3.34c-0.62-0.99-1.08-1.67-1.39-2.04c-0.31-0.37-0.59-0.49-0.84-0.37
		c-0.25-0.49-0.65-0.87-1.21-1.11c-0.56-0.25-1.02-0.68-1.39-1.3c-0.62,0-1.02-0.12-1.21-0.37c-0.19-0.25-0.59-0.37-1.21-0.37
		c-0.87-0.62-1.36-1.11-1.49-1.49c-0.12-0.37-0.31-0.43-0.56-0.19c-0.25-0.49-0.62-0.84-1.11-1.02c-0.5-0.19-0.87-0.46-1.11-0.83
		c-0.62,0-1.18-0.15-1.67-0.46c-0.5-0.31-1.05-0.53-1.67-0.65c-1.11-0.49-1.86-0.74-2.23-0.74c-1.24-0.62-2.04-1.11-2.41-1.49
		c-0.37-0.37-0.81-0.68-1.3-0.93l-2.78-0.37c-1.48-0.86-2.63-1.33-3.43-1.39c-0.81-0.06-1.58-0.21-2.32-0.46
		c-0.74-0.12-1.49-0.31-2.23-0.56c-1.24-0.25-2.11-0.46-2.6-0.65c-0.5-0.19-1.11-0.15-1.86,0.09c-0.5-0.37-1.15-0.59-1.95-0.65
		c-0.81-0.06-1.39-0.28-1.76-0.65c-1.24,0.25-2.35,0-3.34-0.74c-0.5,0.25-1.02,0.28-1.58,0.09c-0.56-0.19-1.15-0.34-1.76-0.46
		c-0.5-0.12-1.02-0.15-1.58-0.09c-0.56,0.06-1.08,0.03-1.58-0.09c-0.37-0.12-0.87-0.34-1.49-0.65c-0.62-0.31-1.24-0.15-1.86,0.46
		c-0.99-0.62-2.17-0.86-3.53-0.74c-1.36,0.12-2.54-0.12-3.53-0.74c-0.5,0.5-0.96,0.62-1.39,0.37c-0.44-0.25-0.83-0.37-1.21-0.37
		c-1.36,0.12-2.32,0.12-2.88,0c-0.56-0.12-1.15-0.19-1.76-0.19h-5.38c-1.36,0-2.29,0-2.78,0c-0.49,0-1.05-0.12-1.67-0.37
		c-1.36,0.12-2.26,0.12-2.69,0c-0.43-0.12-1.02-0.12-1.76,0c-0.86,0-1.36-0.06-1.49-0.19c-0.12-0.12-0.37-0.12-0.74,0
		c-1.86,0.12-3.09,0.25-3.71,0.37c-0.62,0.12-1.24,0.06-1.86-0.19c-1.24,0.25-2.01,0.37-2.32,0.37c-0.31,0-0.59-0.06-0.84-0.19
		c-1.24,0.37-1.95,0.5-2.13,0.37c-0.19-0.12-0.4-0.12-0.65,0c-1.36,0.37-2.23,0.44-2.6,0.19c-0.37-0.25-0.86-0.31-1.48-0.19
		c-0.25-0.12-0.62-0.12-1.11,0c-0.49,0.12-0.93,0.06-1.3-0.19c-1.73,0.25-2.88,0.5-3.43,0.74c-0.56,0.25-1.08,0.44-1.58,0.56
		c-0.25,1.24-0.28,1.95-0.09,2.13s0.4,0.34,0.65,0.46c0.5,1.11,0.93,1.86,1.3,2.23c0.37,0.37,0.44,0.81,0.19,1.3
		c0.37,0.99,1.05,1.67,2.04,2.04c0.5,0.99,0.77,1.95,0.84,2.88c0.06,0.93,0.46,1.52,1.21,1.76c0.12,0.37,0.28,0.77,0.46,1.21
		c0.19,0.43,0.4,0.9,0.65,1.39c0.5,0.74,0.77,1.24,0.84,1.49c0.06,0.25,0.22,0.5,0.46,0.74c0.12,0.37,0.19,0.71,0.19,1.02
		c0,0.31,0.06,0.65,0.19,1.02c0.25,0.74,0.34,1.21,0.28,1.39c-0.06,0.19-0.03,0.4,0.09,0.65c0,0.37,0.06,0.81,0.19,1.3
		c0.12,0.5,0.19,0.93,0.19,1.3c0,0.5-0.12,0.96-0.37,1.39c-0.25,0.44-0.19,0.9,0.19,1.39c-0.37,1.61-0.52,2.51-0.46,2.69
		c0.06,0.19,0.03,0.46-0.09,0.83c-0.25,0.62-0.52,1.21-0.84,1.76c-0.31,0.56-0.65,1.02-1.02,1.39c-0.37,1.49-0.99,2.45-1.86,2.88
		c-0.86,0.44-1.55,1.08-2.04,1.95c-0.62,0-1.08,0.12-1.39,0.37c-0.31,0.25-0.71,0.37-1.21,0.37c-0.62,0.25-1.21,0.44-1.76,0.56
		c-0.56,0.12-1.14,0.31-1.76,0.56c-1.11-0.12-1.86-0.12-2.23,0c-0.37,0.12-0.8,0.06-1.3-0.19c-1.24,0.25-1.98,0.56-2.23,0.93
		c-0.99-0.25-1.67-0.43-2.04-0.56c-0.37-0.12-0.68-0.19-0.93-0.19c-0.62-0.12-1.21-0.15-1.76-0.09c-0.56,0.06-1.14,0.03-1.76-0.09
		c-1.11-0.74-1.82-1.11-2.14-1.11c-0.31,0-0.59-0.12-0.83-0.37c-1.24-0.74-2.07-1.17-2.51-1.3c-0.43-0.12-0.71-0.37-0.84-0.74
		c-0.49,0-0.9-0.06-1.21-0.19c-0.31-0.12-0.65-0.31-1.02-0.56c-0.25-0.12-0.49-0.31-0.74-0.56c-0.25-0.25-0.56-0.49-0.93-0.74
		c-0.99-0.62-1.48-0.9-1.48-0.83c0,0.06-0.12-0.03-0.37-0.28c-1.36-1.24-2.23-2.04-2.6-2.41c-0.86-0.74-1.36-1.14-1.48-1.21
		c-0.12-0.06-0.25-0.09-0.37-0.09c-0.37-0.99-0.93-1.7-1.67-2.14c-0.74-0.43-1.3-1.08-1.67-1.95c-0.74-1.24-1.55-2.29-2.41-3.16
		c-0.62-1.49-0.96-2.23-1.02-2.23c-0.06,0-0.15-0.06-0.28-0.19c-0.86-1.11-1.3-1.79-1.3-2.04c-0.25-0.49-0.49-0.99-0.74-1.49
		c-0.25-0.49-0.62-0.93-1.11-1.3c-0.62-1.11-0.99-1.95-1.11-2.51c-0.12-0.56-0.37-1.02-0.74-1.39c0.12-1.24-0.09-2.13-0.65-2.69
		c-0.56-0.56-0.84-1.51-0.84-2.88c-0.49-0.74-0.74-1.67-0.74-2.78c0-1.11,0.12-2.16,0.37-3.16c0.12-1.36,0-2.47-0.37-3.34
		c-0.37-0.86-0.25-1.61,0.37-2.23L94.31,333.99z M106.93,341.6c-1.24,1.61-1.92,2.48-2.04,2.6c-0.49,1.24-0.71,1.95-0.65,2.13
		c0.06,0.19,0.09,0.34,0.09,0.46c0,1.36-0.19,2.6-0.56,3.71c0.5,1.61,0.71,2.63,0.65,3.06c-0.06,0.44-0.03,0.77,0.09,1.02
		c0.62,0.99,0.93,1.55,0.93,1.67c0,0.12,0.06,0.25,0.19,0.37c0.62,0.99,0.87,1.86,0.74,2.6c0.62,0.12,0.99,0.37,1.11,0.74
		c0.12,0.37,0.5,0.62,1.11,0.74c0.99,0.99,1.61,1.74,1.86,2.23c1.24,0.62,2.17,1.3,2.78,2.04c1.24-0.12,2.11,0.25,2.6,1.11
		c1.11,0.5,2.11,0.74,2.97,0.74c0.74,0.25,1.24,0.43,1.48,0.56c0.25,0.12,0.56,0.25,0.93,0.37c0.25-0.25,0.59-0.28,1.02-0.09
		c0.44,0.19,0.84,0.28,1.21,0.28c0.99,0.25,1.55,0.34,1.67,0.28c0.12-0.06,0.31-0.09,0.56-0.09c0.74,0,1.36-0.06,1.86-0.19
		c0.5-0.12,1.05-0.19,1.67-0.19c1.36,0.12,2.26,0.09,2.69-0.09c0.44-0.19,0.84-0.28,1.21-0.28c0.37-0.62,1.11-1.11,2.23-1.49
		c0.5-0.99,1.05-1.55,1.67-1.67c0.25-0.37,0.46-0.71,0.65-1.02c0.19-0.31,0.4-0.65,0.65-1.02c0.12-0.49,0.31-0.93,0.56-1.3
		c0.25-0.37,0.44-0.74,0.56-1.11c0.25-1.11,0.31-1.86,0.19-2.23c0.12-1.24,0.25-2.41,0.37-3.53c0.12-1.11,0.06-1.98-0.19-2.6
		c-0.49-0.62-0.77-1.05-0.84-1.3c-0.06-0.25-0.15-0.49-0.28-0.74c-1.11-1.36-1.79-2.1-2.04-2.23c-0.25-0.12-0.56-0.31-0.93-0.56
		c-0.49-0.74-1.11-1.61-1.86-2.6c-0.62,0-1.21-0.09-1.76-0.28c-0.56-0.19-1.14-0.4-1.76-0.65c-0.74-0.74-1.17-1.24-1.3-1.49
		c-0.12-0.25-0.31-0.25-0.56,0c-1.24-0.62-2.16-1.02-2.78-1.21c-0.62-0.19-1.24-0.34-1.86-0.46c-0.37,0.37-0.71,0.43-1.02,0.19
		c-0.31-0.25-0.71-0.31-1.21-0.19c-1.86,0.5-3.19,0.68-3.99,0.56c-0.8-0.12-1.51,0.06-2.13,0.56c-1.11-0.25-1.95-0.43-2.51-0.56
		c-0.56-0.12-1.14-0.12-1.76,0c-1.49,0.25-2.35,0.43-2.6,0.56c-0.25,0.12-0.56,0.06-0.93-0.19L106.93,341.6z"/>
	<path class="st1" d="M48.45,284.24c0.87-0.49,1.46-0.71,1.76-0.65c0.31,0.06,0.46-0.15,0.46-0.65c0.99,0.62,1.92,0.84,2.78,0.65
		c0.87-0.19,1.67-0.4,2.41-0.65c1.48,0.25,2.23,0.44,2.23,0.56c0,0.12,0.12,0.19,0.37,0.19c0.99-0.49,1.61-0.68,1.86-0.56
		c0.25,0.12,0.44,0.19,0.56,0.19c0.5,0.12,0.93,0.12,1.3,0c0.37-0.12,0.81,0,1.3,0.37c1.24-0.25,2.01-0.34,2.32-0.28
		c0.31,0.06,0.53,0.22,0.65,0.46c0.99-0.12,1.64-0.21,1.95-0.28c0.31-0.06,0.59,0.09,0.84,0.46c1.36-0.25,2.26-0.37,2.69-0.37
		c0.44,0,0.96,0.06,1.58,0.19c1.11,0,1.86-0.03,2.23-0.09c0.37-0.06,0.81,0.03,1.3,0.28c1.11-0.37,1.7-0.49,1.76-0.37
		c0.06,0.12,0.22,0.25,0.46,0.37c0.25-0.25,0.56-0.34,0.93-0.28c0.37,0.06,0.74,0.16,1.11,0.28c1.73-0.12,3-0.09,3.81,0.09
		c0.81,0.19,1.64,0.34,2.51,0.46c0.99-0.12,1.58-0.12,1.76,0c0.19,0.12,0.53,0.19,1.02,0.19c1.11-0.12,1.67-0.15,1.67-0.09
		c0,0.06,0.12,0.16,0.37,0.28c0.74,0.12,1.15,0.06,1.21-0.19c0.06-0.25,0.34-0.25,0.84,0c1.11,0.62,1.7,0.74,1.76,0.37
		c0.06-0.37,0.28-0.49,0.65-0.37c0.87,0,1.67,0.09,2.41,0.28c0.74,0.19,1.42,0.16,2.04-0.09c1.61,0.12,2.57,0.16,2.88,0.09
		c0.31-0.06,0.71,0.09,1.21,0.46c1.24-0.37,1.86-0.46,1.86-0.28c0,0.19,0.19,0.28,0.56,0.28c1.73-0.25,2.97-0.06,3.71,0.56
		c1.48-0.25,2.41-0.37,2.78-0.37c0.37,0,0.99,0,1.86,0c1.24,0.25,1.98,0.4,2.23,0.46c0.25,0.06,0.5,0.16,0.74,0.28
		c0.62-0.12,1.11-0.19,1.49-0.19c0.37,0,0.81-0.12,1.3-0.37c0.99,0.12,1.61,0.16,1.86,0.09c0.25-0.06,0.44-0.09,0.56-0.09
		c1.36,0.25,2.23,0.31,2.6,0.19c0.37-0.12,0.81-0.12,1.3,0c1.11,0.25,1.86,0.34,2.23,0.28c0.37-0.06,0.81-0.09,1.3-0.09
		c0.5,0,0.96,0.06,1.39,0.19c0.44,0.12,0.84,0,1.21-0.37c0.37,0.37,0.87,0.56,1.49,0.56c0.62,0,1.3-0.06,2.04-0.19
		c1.24,0.25,1.92,0.19,2.04-0.19c0.62,0.5,1.42,0.65,2.41,0.46c0.99-0.19,1.61,0.03,1.86,0.65c0.87-0.49,1.55-0.49,2.04,0
		c1.11,0,1.73-0.06,1.86-0.19c0.12-0.12,0.31-0.25,0.56-0.37c1.36-0.12,2.07-0.12,2.13,0c0.06,0.12,0.22,0.19,0.46,0.19
		c0.99-0.12,1.64-0.12,1.95,0c0.31,0.12,0.59,0.19,0.84,0.19c1.24-0.12,2.01-0.09,2.32,0.09c0.31,0.19,0.77,0.28,1.39,0.28
		c0.87,0,1.49-0.03,1.86-0.09c0.37-0.06,0.68,0.03,0.93,0.28c1.73-0.25,2.72-0.25,2.97,0c0.25,0.25,0.56,0.25,0.93,0
		c1.86,0.25,3.16,0.34,3.9,0.28c0.74-0.06,1.49-0.03,2.23,0.09c1.11,0.12,1.76,0.22,1.95,0.28c0.19,0.06,0.4,0.09,0.65,0.09
		c0.99-0.25,1.55-0.34,1.67-0.28c0.12,0.06,0.25,0.09,0.37,0.09c1.48-0.12,2.35-0.15,2.6-0.09c0.25,0.06,0.56,0.09,0.93,0.09
		c0.37,0,0.71-0.09,1.02-0.28c0.31-0.19,0.65-0.28,1.02-0.28c0.74,0.12,1.24,0.09,1.49-0.09c0.25-0.19,0.49-0.15,0.74,0.09
		c1.24-0.86,1.92-1.27,2.04-1.21c0.12,0.06,0.31,0.03,0.56-0.09c0.37-0.12,0.74-0.31,1.11-0.56c0.37-0.25,0.68-0.43,0.93-0.56
		c0.99-0.25,1.67-0.59,2.04-1.02c0.37-0.43,0.86-0.77,1.49-1.02c0.37-1.11,0.99-1.92,1.86-2.41c0-0.99,0.12-1.86,0.37-2.6
		c0.25-0.74,0.31-1.61,0.19-2.6c-0.87-1.49-1.3-2.91-1.3-4.27c0.62,0.12,1.08,0.25,1.39,0.37c0.31,0.12,0.77,0.19,1.39,0.19
		c0.25,0.99,0.4,1.55,0.46,1.67c0.06,0.12,0.21,0.25,0.46,0.37c0.25,0.5,0.49,0.87,0.74,1.11c0.25,0.25,0.49,0.5,0.74,0.74
		c0,1.11,0.28,1.98,0.84,2.6c0.56,0.62,0.52,1.24-0.09,1.86c0.12,0.62,0.4,1.11,0.84,1.49c0.43,0.37,0.52,0.87,0.28,1.48
		c0.74,1.24,0.99,1.98,0.74,2.23c0.74,0.87,0.99,2.01,0.74,3.43c-0.25,1.42-0.74,2.57-1.49,3.43c-0.5,1.48-0.84,2.35-1.02,2.6
		c-0.19,0.25-0.4,0.56-0.65,0.93c-0.74,0.12-1.18,0.28-1.3,0.46c-0.12,0.19-0.31,0.4-0.56,0.65c-0.74,0.87-1.27,1.3-1.58,1.3
		c-0.31,0-0.4,0.12-0.28,0.37c-1.11,0.25-1.73,0.5-1.86,0.74c-0.12,0.25-0.44,0.25-0.93,0c-0.62,0.74-1.55,1.05-2.78,0.93
		c-0.74,0.37-1.46,0.68-2.14,0.93c-0.68,0.25-1.58,0.31-2.69,0.19c-0.87-0.12-1.39-0.12-1.58,0c-0.19,0.12-0.4,0.19-0.65,0.19
		c-1.36-0.12-2.29-0.12-2.79,0c-0.5,0.12-1.05,0.19-1.67,0.19c-0.25,0-0.68,0-1.3,0c-0.62,0-1.24-0.06-1.86-0.19
		c-1.61-0.37-2.94-0.49-3.99-0.37c-1.05,0.12-1.89,0.06-2.51-0.19c-0.37-0.12-0.8-0.12-1.3,0c-0.49,0.12-0.93,0-1.3-0.37
		c-1.24,0.12-1.92,0.22-2.04,0.28c-0.12,0.06-0.25,0.09-0.37,0.09c-1.49-0.12-3.06-0.21-4.73-0.28c-1.67-0.06-3.37-0.09-5.11-0.09
		c-0.86,0.12-1.36,0.12-1.49,0c-0.12-0.12-0.31-0.19-0.56-0.19c-0.49,0-1.11,0.06-1.86,0.19c-0.74,0.12-1.48,0.12-2.23,0
		c-0.49,0-0.96-0.09-1.39-0.28c-0.43-0.19-0.9-0.28-1.39-0.28c-0.99,0.12-1.64,0.16-1.95,0.09c-0.31-0.06-0.59-0.09-0.83-0.09
		c-1.24,0.12-1.89,0.12-1.95,0c-0.06-0.12-0.15-0.19-0.28-0.19c-1.36,0-2.2-0.03-2.51-0.09c-0.31-0.06-0.65,0.03-1.02,0.28
		c-0.25-0.12-0.56-0.25-0.93-0.37c-0.37-0.12-0.74-0.19-1.11-0.19c-1.36,0.37-2.1,0.46-2.23,0.28c-0.12-0.19-0.31-0.34-0.56-0.46
		c-0.37,0.25-0.96,0.31-1.76,0.19c-0.8-0.12-1.51-0.06-2.14,0.19c-1.24-0.37-1.98-0.53-2.23-0.46c-0.25,0.06-0.56-0.03-0.93-0.28
		c-0.49,0.12-0.99,0.22-1.49,0.28c-0.49,0.06-1.17,0.03-2.04-0.09c-1.61-0.49-2.85-0.62-3.71-0.37c-0.86,0.25-1.61,0.06-2.23-0.56
		c-1.49,0.5-2.72,0.65-3.71,0.46c-0.99-0.19-2.35-0.28-4.08-0.28c-1.11-0.25-1.95-0.34-2.51-0.28c-0.56,0.06-1.14,0.09-1.76,0.09
		c-0.62,0-1.24-0.06-1.86-0.19c-0.62-0.12-1.24-0.06-1.86,0.19c-0.25-0.25-0.71-0.4-1.39-0.46c-0.68-0.06-1.27-0.09-1.76-0.09
		c-0.62,0.25-1.11,0.34-1.48,0.28c-0.37-0.06-0.68-0.09-0.93-0.09c-1.61-0.25-2.69-0.43-3.25-0.56c-0.56-0.12-1.14-0.19-1.76-0.19
		c-1.61,0.12-2.97,0.19-4.08,0.19c-1.11,0-2.23-0.06-3.34-0.19c-1.36-0.25-2.1-0.34-2.23-0.28c-0.12,0.06-0.31,0.09-0.56,0.09
		c-1.36-0.12-2.1-0.21-2.23-0.28c-0.12-0.06-0.31-0.03-0.56,0.09c-1.36,0.12-2.23,0.16-2.6,0.09c-0.37-0.06-0.74-0.09-1.11-0.09
		c-0.74,0.25-1.21,0.34-1.39,0.28c-0.19-0.06-0.4-0.09-0.65-0.09c-1.36-0.12-2.1-0.15-2.23-0.09c-0.12,0.06-0.31,0.09-0.56,0.09
		c-1.24,0-1.98-0.03-2.23-0.09c-0.25-0.06-0.49-0.09-0.74-0.09c-0.99,0.25-1.7,0.4-2.13,0.46c-0.43,0.06-0.9,0.09-1.39,0.09
		c-1.24-0.12-2.04-0.15-2.41-0.09c-0.37,0.06-0.8-0.03-1.3-0.28c-2.47,0.12-4.3,0.28-5.48,0.46c-1.17,0.19-2.38,0.22-3.62,0.09
		c-1.11,0.25-1.86,0.5-2.23,0.74c-0.37,0.25-0.74,0.31-1.11,0.19c-0.62-0.25-1.45,0.06-2.51,0.93c-1.05,0.87-1.76,1.61-2.13,2.23
		c0.25,0.62,0.31,1.05,0.19,1.3c-0.12,0.25-0.25,0.62-0.37,1.11c0.87,0.5,1.27,0.9,1.21,1.21c-0.06,0.31-0.09,0.59-0.09,0.83
		c0.74,1.36,1.24,2.04,1.49,2.04c0.99,1.24,1.52,2.04,1.58,2.41c0.06,0.37,0.28,0.68,0.65,0.93c0.37,1.86,0.87,2.79,1.49,2.79
		c-0.25,0.49-0.31,0.9-0.19,1.21c0.12,0.31,0.19,0.71,0.19,1.21c-0.25,0.25-0.53,0.46-0.84,0.65c-0.31,0.19-0.53,0.46-0.65,0.83
		c-0.49-0.25-0.84-0.25-1.02,0c-0.19,0.25-0.59,0.31-1.21,0.19c-0.86-1.49-1.45-2.45-1.76-2.88c-0.31-0.44-0.65-0.96-1.02-1.58
		c-0.86-0.87-1.3-1.36-1.3-1.49c0-0.12-0.06-0.25-0.19-0.37c-1.24-1.86-2.16-3.03-2.78-3.53c0-1.11-0.37-1.79-1.11-2.04
		c-0.49-1.11-0.62-1.92-0.37-2.41c-0.49-0.74-0.86-1.36-1.11-1.86c-0.62-2.35-1.49-3.71-2.6-4.08c0-0.74-0.03-1.42-0.09-2.04
		c-0.06-0.62-0.09-1.24-0.09-1.86c-0.37-0.49-0.49-1.17-0.37-2.04c0.74-1.24,1.11-2.04,1.11-2.41c0.74-0.74,1.11-1.24,1.11-1.49
		c0-0.25,0.06-0.49,0.19-0.74c0.25-0.25,0.53-0.56,0.84-0.93c0.31-0.37,0.71-0.68,1.21-0.93c1.86-0.62,3.06-0.9,3.62-0.84
		c0.56,0.06,1.15,0.03,1.76-0.09c1.24-0.49,1.98-0.68,2.23-0.56c0.25,0.12,0.5,0.19,0.74,0.19c1.61-0.12,2.66-0.25,3.16-0.37
		c0.5-0.12,0.99-0.19,1.49-0.19c0.62,0.12,1.24,0.09,1.86-0.09C47.96,283.59,48.33,283.74,48.45,284.24z"/>
	<path class="st1" d="M125.5,263.45c-0.62-0.25-1.21-0.53-1.76-0.84c-0.56-0.31-0.96-0.77-1.21-1.39c-0.74-0.12-1.24-0.43-1.49-0.93
		c-0.25-0.49-0.74-0.8-1.48-0.93c-0.49-0.86-1.11-1.49-1.86-1.86c-0.74-1.11-1.08-1.67-1.02-1.67c0.06,0,0.09-0.12,0.09-0.37
		c-0.86-1.11-1.48-1.79-1.86-2.04c-0.37-0.25-0.68-0.56-0.93-0.93c-0.49-0.86-0.86-1.42-1.11-1.67c-0.25-0.25-0.49-0.49-0.74-0.74
		c-0.49-0.99-0.74-1.58-0.74-1.76s-0.06-0.4-0.19-0.65c-0.86-1.24-1.36-1.98-1.49-2.23c-0.12-0.25-0.37-0.43-0.74-0.56
		c-0.62-2.35-1.24-4.08-1.86-5.2c-0.25-0.86-0.34-1.49-0.28-1.86c0.06-0.37,0.03-0.74-0.09-1.11c-0.25-1.86-0.25-3.06,0-3.62
		c0.25-0.56,0.37-1.14,0.37-1.76c0-0.99,0.16-1.61,0.46-1.86c0.31-0.25,0.46-0.56,0.46-0.93c1.36-0.37,2.2-0.77,2.51-1.21
		c0.31-0.43,0.53-1.08,0.65-1.95c0.99-1.49,1.67-2.23,2.04-2.23c0.37-0.86,0.81-1.64,1.3-2.32c0.5-0.68,1.24-1.21,2.23-1.58
		c0.62-0.99,1.05-1.61,1.3-1.86c0.25-0.25,0.56-0.43,0.93-0.56c1.24-1.11,2.11-1.76,2.6-1.95c0.5-0.19,0.87-0.46,1.11-0.84
		c0.99-0.25,1.89-0.43,2.69-0.56c0.81-0.12,1.7-0.06,2.69,0.19c2.11-0.37,3.71,0,4.83,1.11c1.48,0.25,2.26,0.25,2.32,0
		c0.06-0.25,0.22-0.31,0.46-0.19c0.87,0.25,1.49,0.43,1.86,0.56c0.37,0.12,0.74,0.25,1.11,0.37c1.24,0.37,1.95,0.5,2.14,0.37
		c0.19-0.12,0.4-0.12,0.65,0c1.24,0.87,1.98,1.36,2.23,1.49c0.25,0.12,0.56,0.19,0.93,0.19c0.74,1.24,1.18,1.83,1.3,1.76
		c0.12-0.06,0.44-0.09,0.93-0.09c1.36,1.11,2.2,1.7,2.51,1.76c0.31,0.06,0.53,0.34,0.65,0.84c0.74,0.5,1.49,1.11,2.23,1.86
		c0.74,1.11,1.21,1.83,1.39,2.13c0.19,0.31,0.46,0.46,0.84,0.46c0.62,0.74,1.05,1.18,1.3,1.3c0.25,0.12,0.5,0.25,0.74,0.37
		c0.37,1.24,0.62,1.86,0.74,1.86c0.12,0,0.19,0.06,0.19,0.19c0.5,1.11,0.9,1.83,1.21,2.14c0.31,0.31,0.59,0.65,0.84,1.02
		c0,0.74,0.22,1.36,0.65,1.86c0.44,0.5,0.77,1.05,1.02,1.67c0.25,0.37,0.44,0.74,0.56,1.11c0.12,0.37,0.37,0.68,0.74,0.93
		c0.62,1.98,1.3,3.59,2.04,4.83c0.74,1.24,0.87,2.6,0.37,4.08c0.37,1.61,0.5,2.48,0.37,2.6c-0.12,0.12-0.25,0.31-0.37,0.56
		c0.5,1.11,0.74,1.86,0.74,2.23c0,0.37-0.12,0.87-0.37,1.48c-0.37,1.24-0.56,2.11-0.56,2.6c-0.74,1.24-1.21,2.07-1.39,2.51
		c-0.19,0.44-0.4,0.84-0.65,1.21c-0.25,0.37-0.52,0.77-0.84,1.21c-0.31,0.43-0.77,0.65-1.39,0.65l-1.49,1.49
		c-1.61,0.62-2.47,1.18-2.6,1.67c-1.24,0.25-1.98,0.5-2.23,0.74c-0.99,0.37-1.51,0.59-1.58,0.65c-0.06,0.06-0.28,0.16-0.65,0.28
		c-0.25,0-0.65,0.06-1.21,0.19c-0.56,0.12-1.02,0.19-1.39,0.19c-2.47,0.37-4.21,0.53-5.2,0.46c-0.99-0.06-1.98,0.03-2.97,0.28
		c-0.25-0.25-0.52-0.34-0.84-0.28c-0.31,0.06-0.77,0.03-1.39-0.09c-1.11-0.12-1.76-0.25-1.95-0.37c-0.19-0.12-0.4-0.19-0.65-0.19
		c-1.11-0.12-2.16-0.37-3.16-0.74c-0.37-0.12-0.71-0.28-1.02-0.46c-0.31-0.19-0.71-0.21-1.21-0.09c-0.37-0.74-0.96-1.21-1.76-1.39
		c-0.8-0.19-1.51-0.46-2.13-0.83L125.5,263.45z M120.67,236.15c-0.37,0.74-0.65,1.18-0.84,1.3c-0.19,0.12-0.34,0.31-0.46,0.56
		c-0.37,1.36-0.46,2.13-0.28,2.32c0.19,0.19,0.22,0.4,0.09,0.65c0,0.62-0.12,1.24-0.37,1.86c-0.25,0.62-0.06,1.11,0.56,1.49
		c0.12,1.36,0.12,2.11,0,2.23c0.25,0.37,0.44,0.77,0.56,1.21c0.12,0.43,0.31,0.77,0.56,1.02c0.74,0.37,1.21,0.68,1.39,0.93
		c0.19,0.25,0.46,0.31,0.84,0.19c0.5,0.37,1.11,0.93,1.86,1.67c1.98,0.37,3.25,0.74,3.81,1.11c0.56,0.37,1.02,0.81,1.39,1.3
		c0.62-0.12,1.27-0.15,1.95-0.09c0.68,0.06,1.21,0.28,1.58,0.65c1.86,0.5,2.94,0.65,3.25,0.46c0.31-0.19,0.77-0.21,1.39-0.09
		c1.61,0.5,2.38,0.56,2.32,0.19c-0.06-0.37,0.09-0.49,0.46-0.37c1.36,0,2.07-0.09,2.13-0.28c0.06-0.19,0.22-0.28,0.46-0.28
		l2.23-0.56c0.99-0.49,1.55-0.68,1.67-0.56c0.12,0.12,0.31,0.19,0.56,0.19c1.11-0.74,1.8-1.21,2.04-1.39
		c0.25-0.19,0.5-0.4,0.74-0.65c0.99-0.12,1.58-0.28,1.76-0.46c0.19-0.19,0.4-0.15,0.65,0.09c0.12-0.62,0.25-1.14,0.37-1.58
		c0.12-0.43,0.5-0.77,1.11-1.02c0.25-0.99,0.68-1.55,1.3-1.67c0.5-1.98,0.71-3.28,0.65-3.9c-0.06-0.62-0.21-1.42-0.46-2.41
		c0.12-1.86,0.03-3.09-0.28-3.71c-0.31-0.62-0.71-1.05-1.21-1.3c-0.49-0.49-0.84-0.87-1.02-1.11c-0.19-0.25-0.4-0.49-0.65-0.74
		c-1.11-0.62-1.95-1.14-2.51-1.58c-0.56-0.43-1.21-0.59-1.95-0.46c-2.6-1.98-5.13-2.91-7.61-2.78c-1.49-0.49-2.32-0.68-2.51-0.56
		c-0.19,0.12-0.4,0.19-0.65,0.19c-0.74-0.49-1.64-0.65-2.69-0.46c-1.05,0.19-1.95,0.4-2.69,0.65c-1.36,0.25-2.14,0.34-2.32,0.28
		c-0.19-0.06-0.34-0.09-0.46-0.09c-1.24,0.87-1.92,1.36-2.04,1.48c-1.24,0.62-2.1,1.18-2.6,1.67c-0.49,0.5-1.11,0.93-1.86,1.3
		c-0.62,0.74-0.99,1.18-1.11,1.3c-0.12,0.12-0.31,0.25-0.56,0.37L120.67,236.15z"/>
	<path class="st1" d="M119,121.98c0.37,0.25,0.77,0.43,1.21,0.56c0.44,0.12,0.84,0.31,1.21,0.56c0.37,0.25,0.77,0.46,1.21,0.65
		c0.44,0.19,0.84,0.46,1.21,0.83c0.5-0.12,0.87-0.12,1.11,0c0.25,0.12,0.56,0.19,0.93,0.19c0.25,0.37,0.68,0.62,1.3,0.74
		c0.62,0.12,1.24,0.31,1.86,0.56c1.36,0.62,2.2,0.9,2.51,0.84c0.31-0.06,0.59-0.09,0.84-0.09c0.5,0.12,1.36,0.31,2.6,0.56
		c1.61,0.5,2.66,0.71,3.16,0.65c0.5-0.06,0.87,0.16,1.11,0.65c1.36,0.12,2.6,0.56,3.71,1.3c0.99-0.25,1.92-0.19,2.78,0.19
		c0.87,0.37,1.8,0.68,2.78,0.93c0.25,0,0.59-0.06,1.02-0.19c0.44-0.12,0.9-0.06,1.39,0.19c0.87,0.37,1.36,0.53,1.49,0.46
		c0.12-0.06,0.31-0.03,0.56,0.09c1.11,0.5,1.67,0.68,1.67,0.56c0-0.12,0.12-0.19,0.37-0.19c1.36-0.12,2.07-0.06,2.13,0.19
		c0.06,0.25,0.22,0.43,0.46,0.56c1.48,0,2.23,0.09,2.23,0.28s0.06,0.34,0.19,0.46c0.62-0.25,1.15-0.37,1.58-0.37
		c0.44,0,0.96,0.12,1.58,0.37c1.49-0.62,2.32-1.02,2.51-1.21s0.4-0.4,0.65-0.65c0.62,0.37,1.11,0.81,1.48,1.3
		c0.37,0.5,0.87,0.87,1.49,1.11c0.12,0.62,0.37,1.11,0.74,1.49c0.37,0.37,0.68,0.87,0.93,1.48l2.04,3.9
		c0.25,0.37,0.5,0.71,0.74,1.02c0.25,0.31,0.5,0.65,0.74,1.02c0.25,0.25,0.43,0.59,0.56,1.02c0.12,0.44,0.31,0.77,0.56,1.02
		c0,0.62-0.25,0.99-0.74,1.11c-0.49,0.12-0.68,0.5-0.56,1.11c-0.62-0.25-1.27-0.28-1.95-0.09c-0.68,0.19-1.33,0.4-1.95,0.65
		c-1.24,0.5-2.16,0.87-2.78,1.11c-0.62,0.25-1.3,0.37-2.04,0.37c-0.62,0.87-1.11,1.36-1.49,1.49c-0.37,0.12-0.86,0.25-1.49,0.37
		c-0.99,0.5-1.76,0.96-2.32,1.39c-0.56,0.44-1.14,0.77-1.76,1.02c-0.37,0.12-0.74,0.16-1.11,0.09c-0.37-0.06-0.68,0.09-0.93,0.46
		c-1.48,0.5-2.6,0.99-3.34,1.49c-1.36,0.5-2.41,0.93-3.16,1.3c-0.74,0.37-1.55,0.68-2.41,0.93c-1.24,0.37-1.98,0.68-2.23,0.93
		c-0.25,0.25-0.56,0.43-0.93,0.56c-1.24,0.62-1.98,0.9-2.23,0.84c-0.25-0.06-0.49,0.03-0.74,0.28c-1.24,0.37-2.23,0.71-2.97,1.02
		c-0.74,0.31-1.42,0.65-2.04,1.02c-0.37-0.25-0.77-0.31-1.21-0.19c-0.43,0.12-0.9,0.31-1.39,0.56c-1.11,0.37-1.7,0.68-1.76,0.93
		c-0.06,0.25-0.21,0.43-0.46,0.56l1.67,1.49c1.11,0.5,1.73,0.65,1.86,0.46c0.12-0.19,0.31-0.21,0.56-0.09
		c0.62,0.37,1.3,0.68,2.04,0.93c0.74,0.25,1.42,0.68,2.04,1.3c1.24,0.62,1.98,0.99,2.23,1.11c1.49,0.37,2.32,0.5,2.51,0.37
		c0.19-0.12,0.22-0.19,0.09-0.19c0.74,0.25,1.18,0.46,1.3,0.65c0.12,0.19,0.31,0.28,0.56,0.28c0.87,0.12,1.52,0.31,1.95,0.56
		c0.44,0.25,0.77,0.62,1.02,1.11c0.62,0.12,1.15,0.25,1.58,0.37c0.44,0.12,0.77,0.43,1.02,0.93c1.24,0.5,1.98,0.87,2.23,1.11
		c0.87,0.62,1.55,1.02,2.04,1.21c0.5,0.19,0.99,0.46,1.49,0.84c0.74-0.12,1.3-0.03,1.67,0.28c0.37,0.31,0.87,0.53,1.48,0.65
		c0.62,0.87,0.96,1.27,1.02,1.21c0.06-0.06,0.22,0.03,0.46,0.28c0.62,0.5,1.02,0.93,1.21,1.3c0.19,0.37,0.53,0.62,1.02,0.74
		c0.5,1.11,0.71,1.7,0.65,1.76c-0.06,0.06-0.09,0.22-0.09,0.46c0.87,0.99,1.49,1.67,1.86,2.04c0.99,1.49,1.67,2.66,2.04,3.53
		c-0.25,0.62-0.53,1.15-0.84,1.58c-0.31,0.43-0.59,0.96-0.84,1.58c-1.36-0.37-2.01-0.49-1.95-0.37c0.06,0.12,0.03,0.25-0.09,0.37
		c-1.24,0.5-2.04,0.81-2.41,0.93c-1.36,0.37-2.07,0.5-2.14,0.37c-0.06-0.12-0.15-0.19-0.28-0.19c-1.61,0.5-2.6,0.74-2.97,0.74
		c-0.37,0-0.86,0.06-1.49,0.19c-1.24,0-2.13,0.12-2.69,0.37c-0.56,0.25-1.14,0.25-1.76,0c-0.37,0.25-0.86,0.44-1.49,0.56
		c-0.62,0.12-1.17,0.06-1.67-0.19c-1.24,0.74-1.79,0.93-1.67,0.56c0.12-0.37,0-0.43-0.37-0.19c-1.86,0.87-3.28,1.3-4.27,1.3
		c-0.99,0-1.98,0.12-2.97,0.37c-0.37,0-0.71,0.06-1.02,0.19c-0.31,0.12-0.71,0.25-1.21,0.37c-1.24,0-1.89,0.06-1.95,0.19
		c-0.06,0.12-0.21,0.19-0.46,0.19c-1.49,0.37-2.38,0.53-2.69,0.46c-0.31-0.06-0.53,0.03-0.65,0.28c-1.36,0-2.29,0.25-2.78,0.74
		c-1.73,0.87-3.4,1.24-5.01,1.11c-1.11,0.37-1.82,0.59-2.13,0.65c-0.31,0.06-0.65,0.16-1.02,0.28c-1.24,0.62-2.1,0.96-2.6,1.02
		c-0.49,0.06-0.93,0.28-1.3,0.65c-1.11,0.62-2.04,1.11-2.78,1.49c-0.74,0.37-1.42,0.87-2.04,1.49c-0.25,1.11-0.68,1.86-1.3,2.23
		c-0.12,0.99-0.25,1.92-0.37,2.78c-0.12,0.87-0.06,1.86,0.19,2.97c0.74,0.74,1.18,1.24,1.3,1.49c0.12,0.25,0.06,0.49-0.19,0.74
		c0.25,0.99,0.4,1.73,0.46,2.23c0.06,0.49-0.03,0.86-0.28,1.11c-1.61-0.37-2.51-0.68-2.69-0.93c-0.19-0.25-0.46-0.44-0.84-0.56
		c-0.12-0.5-0.34-0.83-0.65-1.02c-0.31-0.19-0.53-0.53-0.65-1.02l-1.67-1.3c-0.37-0.62-0.65-1.08-0.84-1.39
		c-0.19-0.31-0.4-0.53-0.65-0.65c-0.25-1.11-0.4-1.76-0.46-1.95c-0.06-0.19-0.21-0.34-0.46-0.46c-0.12-0.37-0.25-0.74-0.37-1.11
		c-0.12-0.37-0.43-0.62-0.93-0.74c-0.25-1.36-0.43-2.07-0.56-2.13c-0.12-0.06-0.25-0.15-0.37-0.28c-0.12-0.62-0.15-1.24-0.09-1.86
		c0.06-0.62-0.03-1.24-0.28-1.86c-0.37-1.24-0.37-2.1,0-2.6c0.37-0.49,0.44-1.05,0.19-1.67c0.25-0.37,0.56-0.68,0.93-0.93
		c0.37-0.25,0.5-0.68,0.37-1.3c0.99-0.37,1.46-0.65,1.39-0.84c-0.06-0.19-0.09-0.46-0.09-0.83c0.37-0.25,0.65-0.49,0.84-0.74
		c0.19-0.25,0.4-0.49,0.65-0.74c1.36-0.49,2.11-0.99,2.23-1.49c0.62,0,1.05-0.09,1.3-0.28c0.25-0.19,0.5-0.4,0.74-0.65l2.97-0.56
		c1.49-0.37,2.35-0.68,2.6-0.93c0.37-0.12,0.74-0.19,1.11-0.19c0.37,0,0.74-0.12,1.11-0.37c1.73-0.25,2.97-0.74,3.71-1.48
		c1.24-0.37,1.95-0.62,2.13-0.74c0.19-0.12,0.34-0.19,0.46-0.19c1.61-0.25,2.63-0.43,3.06-0.56c0.44-0.12,0.96-0.25,1.58-0.37
		c1.49,0,2.35-0.03,2.6-0.09c0.25-0.06,0.5-0.15,0.74-0.28c1.11,0.25,1.8,0.28,2.04,0.09c0.25-0.19,0.5-0.34,0.74-0.46
		c0.37,0.25,0.81,0.34,1.3,0.28c0.5-0.06,0.87,0.03,1.11,0.28c0.37-0.62,0.96-1.02,1.76-1.21c0.81-0.19,1.58-0.46,2.32-0.84
		c1.36,0.37,2.26,0.37,2.69,0c0.44-0.37,0.83-0.43,1.21-0.19c1.36-0.37,2.11-0.56,2.23-0.56c0.12,0,0.19-0.12,0.19-0.37
		c-0.12-0.49-0.4-0.71-0.84-0.65c-0.43,0.06-0.77-0.09-1.02-0.46c-0.74-0.25-1.36-0.4-1.86-0.46c-0.49-0.06-0.86-0.34-1.11-0.84
		c-1.24-0.12-1.98-0.31-2.23-0.56c-0.25-0.25-0.49-0.43-0.74-0.56c-1.11-0.49-2.07-0.9-2.88-1.21c-0.8-0.31-1.58-0.34-2.32-0.09
		c-0.49-0.74-0.99-1.14-1.49-1.21c-0.49-0.06-0.74-0.28-0.74-0.65c-0.62,0-1.11-0.09-1.48-0.28c-0.37-0.19-0.86-0.28-1.49-0.28
		c-1.49-0.49-2.35-1.17-2.6-2.04c-0.86-0.37-1.61-0.62-2.23-0.74c-0.62-0.12-1.11-0.37-1.49-0.74c-0.99-0.49-1.79-0.74-2.41-0.74
		c-0.62,0-1.05-0.25-1.3-0.74c-1.11,0.12-1.79-0.19-2.04-0.93c-1.24,0-1.89-0.12-1.95-0.37c-0.06-0.25-0.21-0.49-0.46-0.74
		c-0.49-0.25-0.86-0.49-1.11-0.74c-0.25-0.25-0.62-0.56-1.11-0.93c-0.49-0.74-0.8-1.21-0.93-1.39c-0.12-0.19-0.31-0.4-0.56-0.65
		c-0.12-1.11-0.49-1.86-1.11-2.23c0.25-0.86,0.12-1.45-0.37-1.76c-0.49-0.31-0.74-0.83-0.74-1.58c-0.25-0.37-0.49-0.65-0.74-0.83
		c-0.25-0.19-0.43-0.46-0.56-0.84c0.37-0.62,0.74-1.14,1.11-1.58c0.37-0.43,0.87-0.77,1.48-1.02c0.87,0.12,1.49,0.12,1.86,0
		c0.37-0.12,0.74-0.12,1.11,0c1.61-0.37,2.91-0.74,3.9-1.11c0.62,0,1.21-0.09,1.76-0.28c0.56-0.19,1.08-0.34,1.58-0.46
		c1.11,0,1.8-0.09,2.04-0.28c0.25-0.19,0.68-0.15,1.3,0.09c1.36-0.99,2.41-1.51,3.16-1.58c0.74-0.06,1.3-0.4,1.67-1.02
		c1.49-0.49,2.26-0.65,2.32-0.46c0.06,0.19,0.22,0.28,0.46,0.28c1.36-0.49,2.17-0.9,2.41-1.21c0.25-0.31,0.5-0.34,0.74-0.09
		c1.61-0.49,2.57-0.83,2.88-1.02c0.31-0.19,0.65-0.34,1.02-0.46c1.73-0.25,2.69-0.43,2.88-0.56c0.19-0.12,0.4-0.31,0.65-0.56
		c0.99-0.62,1.61-0.96,1.86-1.02c0.25-0.06,0.44-0.21,0.56-0.46c-0.12-1.61-0.74-2.35-1.86-2.23c-0.25-0.37-0.56-0.59-0.93-0.65
		c-0.37-0.06-0.8-0.21-1.3-0.46c-1.24-0.37-2.29-0.37-3.16,0c-0.62-0.62-1.36-0.99-2.23-1.11c-0.86-0.12-1.61-0.49-2.23-1.11
		c-2.23-0.12-4.02-0.8-5.38-2.04c-0.74,0.37-1.36,0.31-1.86-0.19c-0.49-0.49-0.99-0.86-1.49-1.11c-1.73-0.49-2.75-0.83-3.06-1.02
		c-0.31-0.19-0.65-0.4-1.02-0.65c-0.86-0.37-1.45-0.56-1.76-0.56c-0.31,0-0.59-0.12-0.84-0.37c-0.62-0.37-1.08-0.59-1.39-0.65
		c-0.31-0.06-0.65-0.09-1.02-0.09c-0.25-0.62-1.17-1.17-2.78-1.67c-0.74-0.37-1.36-0.8-1.86-1.3c-0.49-0.49-1.05-0.62-1.67-0.37
		c-0.37-0.86-0.74-1.27-1.11-1.21c-0.37,0.06-0.43-0.09-0.19-0.46c-0.49,0.25-0.86,0.16-1.11-0.28c-0.25-0.43-0.49-0.65-0.74-0.65
		c-0.99-0.62-1.61-0.93-1.86-0.93c-0.25,0-0.43-0.31-0.56-0.93c-1.61-0.86-2.88-1.45-3.81-1.76c-0.93-0.31-1.64-0.77-2.14-1.39
		c-1.36-0.74-2.23-1.14-2.6-1.21c-0.37-0.06-0.62-0.34-0.74-0.83c-0.99-0.62-1.64-0.96-1.95-1.02c-0.31-0.06-0.46-0.28-0.46-0.65
		c-0.74-0.49-1.24-0.8-1.49-0.93c-0.25-0.12-0.43-0.37-0.56-0.74c-1.11-0.25-1.95-0.77-2.51-1.58c-0.56-0.8-1.39-1.33-2.51-1.58
		c-0.12-0.62-0.31-1.02-0.56-1.21c-0.25-0.19-0.43-0.4-0.56-0.65c-1.11-1.24-1.86-2.1-2.23-2.6c-0.74-0.99-1.27-1.58-1.58-1.76
		c-0.31-0.19-0.59-0.4-0.83-0.65c-1.11-1.36-1.79-2.41-2.04-3.16c-1.11-1.73-1.73-2.84-1.86-3.34c-0.74-1.98-1.39-3.31-1.95-3.99
		c-0.56-0.68-0.96-1.45-1.21-2.32c-0.12-1.61-0.31-2.66-0.56-3.16c-0.25-0.49-0.49-0.93-0.74-1.3c0.12-0.74,0.06-1.24-0.19-1.48
		c-0.25-0.25-0.37-0.68-0.37-1.3c0.12-0.86,0.12-1.36,0-1.49c-0.12-0.12-0.19-0.31-0.19-0.56c0-0.99-0.09-1.55-0.28-1.67
		c-0.19-0.12-0.28-0.25-0.28-0.37c0-0.37,0.06-0.74,0.19-1.11c0.12-0.37,0-0.68-0.37-0.93c0.25-1.73,0.53-2.75,0.84-3.06
		c0.31-0.31,0.59-0.59,0.84-0.84c0-0.74,0.19-1.3,0.56-1.67c0.37-0.37,0.68-0.8,0.93-1.3c1.11-0.62,1.8-0.77,2.04-0.46
		c0.25,0.31,0.56,0.28,0.93-0.09c0.5,0.37,1.18,0.71,2.04,1.02c0.87,0.31,1.18,0.83,0.93,1.58c0.74,1.73,1.3,2.78,1.67,3.16
		c0.37,0.37,0.81,0.68,1.3,0.93c-0.12,0.62-0.09,1.05,0.09,1.3c0.19,0.25,0.34,0.5,0.46,0.74c-0.25,0.25-0.34,0.53-0.28,0.84
		c0.06,0.31,0.03,0.71-0.09,1.21c-1.11,1.49-2.16,2.48-3.16,2.97c-0.49,0.99-0.71,1.8-0.65,2.41c0.06,0.62-0.15,1.05-0.65,1.3
		c0.25,1.49,0.56,2.48,0.93,2.97c-0.12,2.23,0.16,3.5,0.84,3.81c0.68,0.31,1.08,0.9,1.21,1.76c0.37,0.5,0.74,0.93,1.11,1.3
		c0.37,0.37,0.68,0.87,0.93,1.49c0.99,0.74,1.58,1.18,1.76,1.3c0.19,0.12,0.28,0.31,0.28,0.56c1.86,0.5,2.97,1.05,3.34,1.67
		c0.62,0.5,1.05,0.81,1.3,0.93c0.25,0.12,0.44,0.31,0.56,0.56c0.74,0,1.18,0.28,1.3,0.84c0.12,0.56,0.62,0.71,1.48,0.46
		c1.11,0.62,1.73,0.99,1.86,1.11c0.12,0.12,0.31,0.25,0.56,0.37c0.74,0,1.21,0.22,1.39,0.65c0.19,0.44,0.65,0.59,1.39,0.46
		c0.25,0.62,0.65,0.96,1.21,1.02c0.56,0.06,0.96,0.4,1.21,1.02c0.62,0,1.05,0.19,1.3,0.56c0.25,0.37,0.74,0.56,1.49,0.56
		c1.24,0.74,2.04,1.49,2.41,2.23c0.99,0,1.67,0.43,2.04,1.3c1.24,0.74,2.07,1.11,2.51,1.11c0.44,0,0.84,0.06,1.21,0.19l2.04,1.11
		c0.25,0.62,0.74,0.93,1.48,0.93s1.24,0.25,1.49,0.74c0.99,0.12,1.7,0.34,2.13,0.65c0.44,0.31,0.96,0.59,1.58,0.84L119,121.98z"/>
	<path class="st1" d="M148.52,82.44c-1.36,0.37-2.07,0.65-2.13,0.84c-0.06,0.19-0.21,0.34-0.46,0.46c-1.11,0.5-1.73,0.81-1.86,0.93
		c-0.99,0.5-1.61,0.83-1.86,1.02c-0.25,0.19-0.56,0.4-0.93,0.65c-0.37,0.87-0.74,1.39-1.11,1.58c-0.37,0.19-0.56,0.53-0.56,1.02
		c-0.74-0.25-1.36-0.12-1.86,0.37c-0.49,0.5-0.86,0.93-1.11,1.3c-0.86,0.37-1.51,0.68-1.95,0.93c-0.43,0.25-0.9,0.5-1.39,0.74
		c-0.37,0.25-0.71,0.56-1.02,0.93c-0.31,0.37-0.77,0.68-1.39,0.93c-0.25,0.37-0.56,0.74-0.93,1.11c-0.37,0.37-0.86,0.68-1.48,0.93
		c-1.24,0.99-1.89,1.55-1.95,1.67c-0.06,0.12-0.21,0.25-0.46,0.37c-0.37,0.25-0.84,0.44-1.39,0.56c-0.56,0.12-0.96,0.5-1.21,1.11
		c-0.86,0.12-1.49,0.5-1.86,1.11c-1.11,0.74-1.76,1.18-1.95,1.3c-0.19,0.12-0.21,0.31-0.09,0.56c-0.86,0.37-1.39,0.65-1.58,0.84
		c-0.19,0.19-0.34,0.4-0.46,0.65c-0.86,0-1.55,0.19-2.04,0.56c-0.49,0.37-0.99,0.74-1.49,1.11c-0.62-0.25-1.02-0.15-1.21,0.28
		c-0.19,0.44-0.52,0.53-1.02,0.28c-0.25,0.5-0.68,0.81-1.3,0.93c-0.62,0.12-1.24,0.31-1.86,0.56c-1.24,0.5-2.1,0.81-2.6,0.93
		c-0.49,0.12-1.05,0.19-1.67,0.19c-1.24,0-1.89-0.03-1.95-0.09c-0.06-0.06-0.15-0.09-0.28-0.09l-2.78-0.37
		c-1.73-0.49-2.6-0.93-2.6-1.3c-0.62-0.12-1.36-0.49-2.23-1.11c-0.99-0.86-1.58-1.39-1.76-1.58s-0.46-0.4-0.84-0.65
		c-0.62-0.74-1.08-1.33-1.39-1.76c-0.31-0.43-0.71-0.77-1.21-1.02c-0.49-0.74-0.99-1.24-1.48-1.49c0-0.49-0.19-0.8-0.56-0.93
		c-0.37-0.12-0.49-0.49-0.37-1.11c-0.62,0-1.02-0.15-1.21-0.46c-0.19-0.31-0.4-0.59-0.65-0.84c-0.74-1.98-1.42-3.09-2.04-3.34
		c-0.37-1.24-0.62-1.98-0.74-2.23c-0.25-0.86-0.68-1.73-1.3-2.6c-0.37-1.49-0.56-2.41-0.56-2.79s-0.06-0.74-0.19-1.11
		c-0.62-1.24-1.02-2.07-1.21-2.51c-0.19-0.43-0.28-0.9-0.28-1.39c0.12-1.48,0.09-2.44-0.09-2.88c-0.19-0.43-0.28-0.9-0.28-1.39
		c0-0.25,0.03-0.59,0.09-1.02c0.06-0.43,0.09-0.83,0.09-1.21c0.12-1.11,0.25-1.83,0.37-2.14c0.12-0.31,0.19-0.65,0.19-1.02
		c0.37-0.25,0.62-0.59,0.74-1.02c0.12-0.43,0.25-0.9,0.37-1.39c0.99-0.87,1.67-1.67,2.04-2.41c0.5-0.74,0.9-1.17,1.21-1.3
		c0.31-0.12,0.46-0.37,0.46-0.74c0.74,0,1.52-0.15,2.32-0.46c0.81-0.31,1.52-0.59,2.13-0.84c1.24-0.25,2.07-0.4,2.51-0.46
		c0.44-0.06,0.84-0.21,1.21-0.46c1.36,0,2.2,0.25,2.51,0.74c0.31,0.5,0.96,0.68,1.95,0.56c0.5,0.87,1.55,1.42,3.16,1.67
		c-0.25,0.62-0.25,1.05,0,1.3c0.25,0.25,0.44,0.62,0.56,1.11c0.87,0.87,1.52,1.33,1.95,1.39c0.44,0.06,0.65,0.34,0.65,0.83
		c0.74,1.36,1.24,2.17,1.48,2.41c0.25,0.25,0.5,0.5,0.74,0.74c0.25,0.62,0.53,1.08,0.84,1.39c0.31,0.31,0.53,0.77,0.65,1.39
		c-0.62,0.25-1.08,0.56-1.39,0.93c-0.31,0.37-0.65,0.74-1.02,1.11l-2.23-0.37c-0.99-0.25-1.64-0.52-1.95-0.83
		c-0.31-0.31-0.71-0.53-1.21-0.65c-1.61,0.37-2.63,0.56-3.06,0.56c-0.43,0-0.9,0.12-1.39,0.37c-0.25,0.25-0.52,0.53-0.84,0.84
		c-0.31,0.31-0.65,0.34-1.02,0.09c0,0.62-0.19,1.02-0.56,1.21c-0.37,0.19-0.43,0.59-0.19,1.21c-0.74,0.25-1.14,0.81-1.21,1.67
		c-0.06,0.87-0.4,1.49-1.02,1.86c0.12,1.36,0.25,2.26,0.37,2.69c0.12,0.44,0.19,0.9,0.19,1.39c0,0.5-0.03,1.11-0.09,1.86
		c-0.06,0.74,0.03,1.42,0.28,2.04c0.25,0.62,0.56,1.18,0.93,1.67c0.37,0.5,0.56,1.11,0.56,1.86c1.61,0.99,2.78,1.67,3.53,2.04
		c0.99,0,1.73,0.03,2.23,0.09c0.5,0.06,0.87,0.22,1.11,0.46c0.37-0.25,0.74-0.46,1.11-0.65c0.37-0.19,0.68-0.46,0.93-0.84
		c1.24-0.49,2.26-1.08,3.06-1.76c0.81-0.68,1.7-1.14,2.69-1.39c0.37-0.62,0.87-1.05,1.48-1.3c0.62-0.25,1.11-0.68,1.49-1.3
		c1.11-0.49,1.8-0.93,2.04-1.3c1.11-0.37,1.86-0.86,2.23-1.49c1.36-0.86,2.11-1.36,2.23-1.49c0.12-0.12,0.31-0.12,0.56,0
		c0.87-0.62,1.42-1.05,1.67-1.3c0.25-0.25,0.68-0.43,1.3-0.56c0.25-0.37,0.53-0.71,0.84-1.02c0.31-0.31,0.59-0.65,0.84-1.02
		c0.5-0.12,0.87-0.28,1.11-0.46c0.25-0.19,0.56-0.28,0.93-0.28c0.87-0.49,1.36-0.84,1.48-1.02c0.12-0.19,0.31-0.4,0.56-0.65
		c0.37-0.25,0.74-0.46,1.11-0.65c0.37-0.19,0.68-0.52,0.93-1.02c1.24,0,1.8-0.12,1.67-0.37c-0.12-0.25-0.06-0.43,0.19-0.56
		c0.37-0.25,0.68-0.52,0.93-0.83c0.25-0.31,0.56-0.59,0.93-0.84c0.99-0.49,1.64-0.93,1.95-1.3c0.31-0.37,0.77-0.68,1.39-0.93
		c1.11-0.74,1.67-1.24,1.67-1.49c0.87-0.37,1.76-0.65,2.69-0.83s1.52-0.77,1.76-1.76c1.11-0.12,1.86-0.37,2.23-0.74
		c1.11-0.86,1.67-1.27,1.67-1.21c0,0.06,0.06,0.03,0.19-0.09c1.11-0.74,1.8-1.11,2.04-1.11c0.25,0,0.5-0.06,0.74-0.19
		c0.87-0.49,1.42-0.93,1.67-1.3c1.36-0.37,2.17-0.56,2.41-0.56c1.11-0.49,1.8-0.77,2.04-0.84c0.25-0.06,0.37,0.03,0.37,0.28
		c0.87-0.62,1.98-0.93,3.34-0.93c1.36,0,2.41-0.06,3.16-0.19c1.24,0.74,1.92,1.02,2.04,0.83c0.12-0.19,0.37-0.21,0.74-0.09
		c0.62,0.25,1.24,0.46,1.86,0.65c0.62,0.19,0.99,0.65,1.11,1.39c1.36,0.62,2.11,0.96,2.23,1.02c0.12,0.06,0.25,0.22,0.37,0.46
		c1.24,0.62,1.98,1.08,2.23,1.39c0.25,0.31,0.62,0.46,1.11,0.46c0.74,0.62,1.18,0.99,1.3,1.11c0.12,0.12,0.31,0.12,0.56,0
		c0.25,0.99,0.71,1.64,1.39,1.95c0.68,0.31,1.08,0.96,1.21,1.95c1.73,0.37,2.66,1.24,2.78,2.6c0.99,0.99,1.67,1.61,2.04,1.86
		c0.37,0.25,0.74,0.5,1.11,0.74c0.37,0.99,0.74,1.64,1.11,1.95c0.37,0.31,0.74,0.65,1.11,1.02l1.3,2.04
		c0.49,0.25,0.8,0.59,0.93,1.02c0.12,0.43,0.31,0.83,0.56,1.21c0.86,1.11,1.36,1.7,1.49,1.76c0.12,0.06,0.19,0.22,0.19,0.46
		c0.37,1.98,0.74,3.53,1.11,4.64c0.37,1.11,0.8,2.35,1.3,3.71c-0.37,1.11-0.5,1.7-0.37,1.76c0.12,0.06,0.19,0.16,0.19,0.28
		c-0.37,0.87-0.46,1.49-0.28,1.86c0.19,0.37,0.09,0.68-0.28,0.93c0.12,0.74,0.21,1.39,0.28,1.95c0.06,0.56,0.03,1.15-0.09,1.76
		c-0.74,0.87-1.11,1.49-1.11,1.86c-0.62,0.99-0.9,1.73-0.84,2.23c0.06,0.5-0.03,1.05-0.28,1.67c-0.62,0.25-1.05,0.65-1.3,1.21
		c-0.25,0.56-0.68,1.08-1.3,1.58c-1.24,0.62-1.92,1.02-2.04,1.21c-0.12,0.19-0.31,0.4-0.56,0.65c-1.24,0.62-1.89,0.96-1.95,1.02
		c-0.06,0.06-0.22,0.15-0.46,0.28c-1.24,0.49-1.89,0.65-1.95,0.46c-0.06-0.19-0.34-0.22-0.84-0.09c-0.25,0.25-0.56,0.34-0.93,0.28
		c-0.37-0.06-0.87-0.03-1.49,0.09c-0.99,0.25-1.61,0.37-1.86,0.37c-0.25,0-0.49-0.06-0.74-0.19c-1.24,0-1.92-0.06-2.04-0.19
		c-0.12-0.12-0.31-0.19-0.56-0.19c-0.49-0.12-0.99-0.19-1.48-0.19c-0.49,0-0.93-0.06-1.3-0.19c-1.98-1.11-3.43-1.8-4.36-2.04
		c-0.93-0.25-1.51-0.8-1.76-1.67c-0.62-0.12-1.42-0.56-2.41-1.3c-0.86-0.49-1.55-1.11-2.04-1.86l-1.86-1.49
		c-0.62-0.86-1.05-1.39-1.3-1.58c-0.25-0.19-0.31-0.59-0.19-1.21c-1.24-1.36-1.89-2.14-1.95-2.32c-0.06-0.19,0.03-0.65,0.28-1.39
		c0.5,0.25,1.02,0.46,1.58,0.65c0.56,0.19,1.08,0.16,1.58-0.09c1.24,0.87,1.92,1.3,2.04,1.3c0.12,0,0.25,0.06,0.37,0.19
		c0.62,0.37,1.05,0.62,1.3,0.74c0.25,0.12,0.56,0.31,0.93,0.56c1.11,0.5,1.73,0.71,1.86,0.65c0.12-0.06,0.31-0.09,0.56-0.09
		c1.36,0.25,2.04,0.34,2.04,0.28c0-0.06,0.06-0.09,0.19-0.09c1.36-0.12,2.07-0.15,2.13-0.09c0.06,0.06,0.16,0.09,0.28,0.09
		c0.74-0.25,1.3-0.34,1.67-0.28c0.37,0.06,0.68-0.03,0.93-0.28c1.24,0.12,1.92,0,2.04-0.37c0.37-0.12,0.74-0.25,1.11-0.37
		c0.37-0.12,0.74-0.19,1.11-0.19c0.99-1.11,1.73-1.92,2.23-2.41c0.49-0.49,0.74-1.24,0.74-2.23c1.11-0.99,1.64-1.64,1.58-1.95
		c-0.06-0.31-0.09-0.71-0.09-1.21c0.25-0.74,0.49-1.55,0.74-2.41c0.25-0.86,0.43-1.61,0.56-2.23c-0.37-1.24-0.44-2.1-0.19-2.6
		c-0.12-0.86-0.12-1.58,0-2.13c0.12-0.56,0.12-1.14,0-1.76c-0.25-0.49-0.53-0.93-0.83-1.3c-0.31-0.37-0.53-0.86-0.65-1.48
		c-0.62-1.11-1.21-1.76-1.76-1.95c-0.56-0.19-0.84-0.59-0.84-1.21c-1.36-0.99-2.16-1.58-2.41-1.76c-0.25-0.19-0.43-0.46-0.56-0.84
		c-0.49-0.12-0.86-0.28-1.11-0.46c-0.25-0.19-0.56-0.34-0.93-0.46c-1.36,0-2.1-0.03-2.23-0.09c-0.12-0.06-0.31-0.09-0.56-0.09
		c-2.23-0.25-3.83-0.28-4.83-0.09c-0.99,0.19-1.86,0.4-2.6,0.65c-1.11,0.37-1.82,0.65-2.14,0.84c-0.31,0.19-0.59,0.4-0.84,0.65
		c-1.11,0.12-1.82,0.37-2.13,0.74c-0.31,0.37-0.77,0.56-1.39,0.56c-1.61,0.62-2.54,1.42-2.78,2.41L148.52,82.44z"/>
</g>
<g>
	<path class="st2" d="M504.04,360.63H392.91v-40.26c-10.69-18.06-23.16-36.27-36.12-52.7c-16.39-20.79-25.05-45.76-25.05-72.2
		c0-64.54,52.51-117.05,117.05-117.05s117.04,52.51,117.04,117.05c0,26.46-8.67,51.43-25.06,72.22
		c-11.68,14.82-25.37,34.83-36.74,53.7L504.04,360.63L504.04,360.63z"/>
	<g>
		<path class="st3" d="M490.21,402.7h-84.05c-8.43,0-15.29-6.86-15.29-15.29c0-8.43,6.86-15.29,15.29-15.29h84.05
			c8.43,0,15.29,6.86,15.29,15.29S498.64,402.7,490.21,402.7z"/>
		<path class="st3" d="M448.21,462.55c-11.74,0-21.68-7.84-24.58-19.01c-15.09-2.19-26.55-15.13-26.55-30.57v-3.5h102.2v3.5
			c0,15.42-11.43,28.36-26.49,30.57C469.9,454.71,459.96,462.55,448.21,462.55z"/>
	</g>
	<path class="st2" d="M503.44,365.11H392.31v-40.26c-10.69-18.06-23.16-36.27-36.12-52.7c-16.39-20.79-25.05-45.76-25.05-72.2
		c0-64.54,52.51-117.05,117.05-117.05s117.04,52.51,117.04,117.05c0,26.46-8.67,51.43-25.06,72.22
		c-11.68,14.82-25.37,34.83-36.74,53.7L503.44,365.11L503.44,365.11z M399.31,358.11h97.13v-34.19l0.5-0.83
		c11.61-19.35,25.72-40.01,37.74-55.26c15.41-19.54,23.56-43.01,23.56-67.88c0-60.68-49.36-110.05-110.04-110.05
		s-110.05,49.37-110.05,110.05c0,24.85,8.14,48.32,23.55,67.86c13.34,16.93,26.18,35.71,37.13,54.31l0.48,0.82L399.31,358.11
		L399.31,358.11z"/>
	<g>
		<path class="st2" d="M452.57,58.49c-1.66,0-3-1.34-3-3v-52c0-1.66,1.34-3,3-3s3,1.34,3,3v52
			C455.57,57.15,454.23,58.49,452.57,58.49z"/>
		<path class="st2" d="M532.25,77.96c-0.53,0-1.07-0.14-1.55-0.44c-1.42-0.86-1.87-2.7-1.01-4.12l26.95-44.47
			c0.86-1.42,2.7-1.87,4.12-1.01s1.87,2.7,1.01,4.12l-26.95,44.47C534.26,77.45,533.27,77.96,532.25,77.96z"/>
		<path class="st2" d="M581.77,140.73c-1.08,0-2.13-0.59-2.66-1.61c-0.77-1.47-0.2-3.28,1.27-4.05l46.1-24.06
			c1.47-0.77,3.28-0.2,4.05,1.27c0.77,1.47,0.2,3.28-1.27,4.05l-46.1,24.06C582.71,140.62,582.23,140.73,581.77,140.73z"/>
		<path class="st2" d="M648.65,214.83c-0.06,0-0.13,0-0.19-0.01l-51.89-3.31c-1.65-0.11-2.91-1.53-2.8-3.19
			c0.11-1.65,1.53-2.9,3.19-2.8l51.89,3.31c1.65,0.11,2.91,1.53,2.8,3.19C651.54,213.61,650.22,214.83,648.65,214.83z"/>
		<path class="st2" d="M615.54,319.55c-0.59,0-1.19-0.17-1.71-0.54l-42.66-29.73c-1.36-0.95-1.69-2.82-0.75-4.18
			c0.95-1.36,2.82-1.69,4.18-0.75l42.66,29.73c1.36,0.95,1.69,2.82,0.75,4.18C617.42,319.1,616.49,319.55,615.54,319.55z"/>
		<path class="st2" d="M365.32,77.96c-1.01,0-2-0.51-2.57-1.45L335.8,32.04c-0.86-1.42-0.41-3.26,1.01-4.12
			c1.42-0.86,3.26-0.41,4.12,1.01l26.95,44.47c0.86,1.42,0.41,3.26-1.01,4.12C366.39,77.82,365.85,77.96,365.32,77.96z"/>
		<path class="st2" d="M315.81,140.73c-0.47,0-0.94-0.11-1.39-0.34l-46.1-24.06c-1.47-0.77-2.04-2.58-1.27-4.05
			c0.77-1.47,2.58-2.04,4.05-1.27l46.1,24.06c1.47,0.77,2.04,2.58,1.27,4.05C317.94,140.14,316.89,140.73,315.81,140.73z"/>
		<path class="st2" d="M248.93,214.83c-1.57,0-2.89-1.22-2.99-2.81c-0.11-1.65,1.15-3.08,2.8-3.19l51.89-3.31
			c1.66-0.1,3.08,1.15,3.19,2.8c0.11,1.65-1.15,3.08-2.8,3.19l-51.89,3.31C249.06,214.83,248.99,214.83,248.93,214.83z"/>
		<path class="st2" d="M282.04,319.55c-0.95,0-1.88-0.45-2.46-1.29c-0.95-1.36-0.61-3.23,0.75-4.18l42.66-29.73
			c1.36-0.95,3.23-0.61,4.18,0.75c0.95,1.36,0.61,3.23-0.75,4.18l-42.66,29.73C283.23,319.38,282.63,319.55,282.04,319.55z"/>
	</g>
	<g>
		
			<rect x="416.1" y="236.22" transform="matrix(0.9768 -0.214 0.214 0.9768 -54.11 96.8157)" class="st4" width="8" height="124.2"/>
		
			<rect x="412.53" y="296.14" transform="matrix(0.2096 -0.9778 0.9778 0.2096 83.177 702.1782)" class="st4" width="126.76" height="7"/>
		<polygon class="st4" points="441.94,279.36 434.94,252.52 415.92,265.25 413.14,261.1 438.01,244.46 443.01,263.62 455.84,232.38 
			466.43,262.58 485.16,254.01 487.24,258.56 463.52,269.4 455.47,246.44 		"/>
	</g>
</g>
<text transform="matrix(4.489660e-11 -1 1 4.489660e-11 -975.2614 -254.4672)" class="st1" style="font-family:'PrincessSofia'; font-size:186.5799px;">glows</text>
<text transform="matrix(4.489660e-11 -1 1 4.489660e-11 -522.0206 -738.3353)" class="st1" style="font-family:'PrincessSofia'; font-size:218.9432px;">glows</text>
</svg>
