<?xml version="1.0" encoding="utf-8"?>
<!-- Generator: Adobe Illustrator 23.0.1, SVG Export Plug-In . SVG Version: 6.00 Build 0)  -->
<svg version="1.1" id="Layer_1" xmlns="http://www.w3.org/2000/svg" xmlns:xlink="http://www.w3.org/1999/xlink" x="0px" y="0px"
	 viewBox="0 0 651.66 463.03" style="enable-background:new 0 0 651.66 463.03;" xml:space="preserve">
<style type="text/css">
	.st0{fill:#444242;}
	.st1{fill:#FFFFFF;}
	.st2{fill:#444242;stroke:#FFFFFF;stroke-miterlimit:10;}
	.st3{fill:#606E86;}
	.st4{font-family:'PrincessSofia';}
	.st5{font-size:190.105px;}
	.st6{fill:#FFC50D;}
</style>
<g id="Background">
</g>
<g>
	<g>
		<g>
			<g>
				<path class="st0" d="M488.62,402.92l-84.05-0.49c-8.43-0.05-15.25-6.95-15.2-15.38s6.95-15.25,15.37-15.2l84.05,0.49
					c8.43,0.05,15.25,6.95,15.2,15.38C503.95,396.14,497.05,402.96,488.62,402.92z M404.7,378.85c-4.57-0.03-8.31,3.67-8.33,8.24
					c-0.03,4.57,3.67,8.31,8.24,8.34l84.05,0.49c4.57,0.03,8.31-3.67,8.34-8.24c0.03-4.57-3.67-8.31-8.24-8.33L404.7,378.85z"/>
				<path class="st1" d="M488.61,403.42l-84.05-0.49c-8.7-0.05-15.75-7.17-15.7-15.88c0.05-8.7,7.17-15.75,15.88-15.7l84.05,0.49
					c8.71,0.05,15.75,7.17,15.7,15.88C504.45,396.42,497.32,403.47,488.61,403.42z M404.74,372.35c-8.15-0.05-14.82,6.55-14.87,14.7
					c-0.05,8.16,6.55,14.83,14.7,14.88l84.05,0.49c8.16,0.05,14.83-6.55,14.88-14.7c0.05-8.15-6.55-14.83-14.71-14.87L404.74,372.35
					z M488.65,396.42l-84.05-0.49c-4.84-0.03-8.76-3.99-8.74-8.84c0.03-4.85,3.99-8.76,8.84-8.74l84.05,0.49
					c4.85,0.03,8.77,3.99,8.74,8.84C497.47,392.52,493.5,396.44,488.65,396.42z M404.7,379.35c-4.29-0.02-7.81,3.45-7.83,7.74
					c-0.02,4.3,3.45,7.81,7.74,7.83l84.05,0.49c4.3,0.02,7.81-3.45,7.84-7.74c0.02-4.29-3.45-7.81-7.75-7.83L404.7,379.35z"/>
			</g>
			<g>
				<path class="st0" d="M446.27,462.53c-11.74-0.07-21.63-7.97-24.47-19.15c-15.08-2.28-26.46-15.29-26.37-30.73l0.02-3.5
					l102.2,0.59l-0.02,3.5c-0.09,15.42-11.6,28.29-26.66,30.41C468.01,454.81,458.02,462.59,446.27,462.53z M402.67,416.19
					c1.57,11.04,10.77,19.75,22.28,20.49l2.83,0.18l0.41,2.81c1.33,9.13,8.95,15.8,18.12,15.85c9.18,0.05,16.88-6.53,18.31-15.64
					l0.44-2.8l2.83-0.15c11.49-0.61,20.77-9.22,22.46-20.23L402.67,416.19z"/>
				<path class="st1" d="M446.27,463.03c-11.68-0.07-21.86-7.95-24.87-19.21c-15.2-2.46-26.56-15.8-26.47-31.17l0.02-4l103.2,0.6
					l-0.02,4c-0.09,15.35-11.57,28.56-26.77,30.86C468.23,455.33,457.96,463.09,446.27,463.03z M395.95,409.66l-0.02,3
					c-0.09,14.98,11.07,27.98,25.95,30.23l0.33,0.05l0.08,0.32c2.79,10.99,12.65,18.71,23.99,18.77c11.34,0.07,21.3-7.54,24.21-18.5
					l0.09-0.32l0.33-0.05c14.87-2.09,26.15-14.96,26.23-29.92l0.02-3L395.95,409.66z M446.31,456.03
					c-9.42-0.05-17.25-6.9-18.61-16.28l-0.35-2.41l-2.43-0.15c-11.56-0.73-21.12-9.53-22.75-20.91l-0.08-0.57l88.84,0.51l-0.09,0.57
					c-1.75,11.35-11.39,20.04-22.93,20.65l-2.43,0.13l-0.38,2.4C463.65,449.32,455.74,456.08,446.31,456.03z M403.25,416.7
					c1.79,10.64,10.84,18.79,21.73,19.48l3.24,0.21l0.47,3.21c1.29,8.89,8.7,15.38,17.63,15.43s16.42-6.35,17.81-15.22l0.5-3.2
					l3.24-0.17c10.87-0.58,19.99-8.63,21.9-19.23L403.25,416.7z"/>
			</g>
		</g>
		<path class="st2" d="M502.06,365.4l-111.13-0.64l0.23-40.26c-10.58-18.13-22.95-36.4-35.81-52.91
			c-16.27-20.89-24.79-45.9-24.63-72.34c0.37-64.54,53.18-116.74,117.73-116.37c64.54,0.37,116.73,53.18,116.36,117.72
			c-0.15,26.46-8.96,51.38-25.48,72.07c-11.77,14.75-25.57,34.69-37.05,53.49L502.06,365.4z M397.98,357.8l97.13,0.56l0.2-34.19
			l0.5-0.83c11.72-19.28,25.95-39.86,38.06-55.05c15.52-19.45,23.81-42.88,23.95-67.74c0.35-60.68-48.73-110.33-109.4-110.68
			c-60.68-0.35-110.34,48.73-110.69,109.41c-0.14,24.85,7.86,48.37,23.16,68c13.24,17,25.97,35.86,36.82,54.52l0.48,0.83
			L397.98,357.8z"/>
		<g>
			<path class="st2" d="M452.96,58.5c-1.66-0.01-2.99-1.36-2.98-3.02l0.3-52c0.01-1.66,1.36-2.99,3.02-2.98s2.99,1.36,2.98,3.02
				l-0.3,52C455.97,57.17,454.62,58.5,452.96,58.5z"/>
			<path class="st2" d="M532.53,78.42c-0.53,0-1.06-0.15-1.55-0.44c-1.41-0.87-1.85-2.71-0.99-4.13l27.21-44.31
				c0.87-1.41,2.71-1.86,4.13-0.99c1.41,0.87,1.85,2.71,0.99,4.13l-27.21,44.31C534.54,77.92,533.55,78.43,532.53,78.42z"/>
			<path class="st2" d="M581.68,141.48c-1.08-0.01-2.12-0.6-2.65-1.63c-0.76-1.47-0.18-3.28,1.29-4.04l46.24-23.8
				c1.48-0.76,3.28-0.18,4.04,1.29c0.76,1.47,0.18,3.28-1.29,4.04l-46.24,23.8C582.63,141.37,582.15,141.48,581.68,141.48z"/>
			<path class="st2" d="M648.14,215.96c-0.06,0-0.13,0-0.19-0.01l-51.87-3.61c-1.65-0.12-2.9-1.55-2.78-3.2
				c0.11-1.65,1.54-2.89,3.2-2.78l51.87,3.61c1.65,0.12,2.9,1.55,2.78,3.2C651.03,214.76,649.71,215.97,648.14,215.96z"/>
			<path class="st2" d="M614.42,320.49c-0.59,0-1.19-0.18-1.71-0.55l-42.49-29.98c-1.35-0.96-1.68-2.83-0.72-4.18
				c0.95-1.35,2.83-1.68,4.18-0.72l42.49,29.98c1.35,0.96,1.68,2.83,0.72,4.18C616.31,320.06,615.37,320.5,614.42,320.49z"/>
			<path class="st2" d="M365.6,77.46c-1.01-0.01-2-0.53-2.56-1.46l-26.69-44.63c-0.85-1.42-0.39-3.26,1.03-4.11s3.26-0.39,4.11,1.03
				l26.69,44.63c0.85,1.42,0.39,3.26-1.03,4.11C366.67,77.33,366.13,77.46,365.6,77.46z"/>
			<path class="st2" d="M315.73,139.94c-0.47,0-0.94-0.11-1.38-0.35l-45.96-24.33c-1.46-0.78-2.02-2.59-1.25-4.06
				c0.78-1.46,2.59-2.02,4.06-1.25l45.96,24.33c1.46,0.78,2.02,2.59,1.25,4.06C317.86,139.37,316.81,139.95,315.73,139.94z"/>
			<path class="st2" d="M248.42,213.66c-1.57-0.01-2.88-1.24-2.97-2.83c-0.1-1.65,1.17-3.07,2.82-3.17l51.91-3.01
				c1.66-0.09,3.07,1.17,3.17,2.82c0.1,1.65-1.17,3.07-2.82,3.17l-51.91,3.01C248.55,213.66,248.49,213.66,248.42,213.66z"/>
			<path class="st2" d="M280.92,318.57c-0.95-0.01-1.88-0.46-2.46-1.3c-0.94-1.36-0.59-3.23,0.77-4.17l42.83-29.48
				c1.36-0.94,3.23-0.6,4.17,0.77c0.94,1.36,0.59,3.23-0.77,4.17l-42.83,29.48C282.12,318.4,281.52,318.57,280.92,318.57z"/>
		</g>
		<g>
			
				<rect x="415.1" y="236.06" transform="matrix(0.9781 -0.2083 0.2083 0.9781 -52.9125 93.8347)" class="st2" width="8" height="124.2"/>
			
				<rect x="411.54" y="296.25" transform="matrix(0.2152 -0.9766 0.9766 0.2152 79.9927 699.046)" class="st2" width="126.76" height="7"/>
			<polygon class="st2" points="441.06,279.3 434.22,252.42 415.12,265.04 412.36,260.87 437.33,244.38 442.21,263.57 455.23,232.4 
				465.64,262.66 484.43,254.2 486.48,258.76 462.7,269.47 454.78,246.46 			"/>
		</g>
	</g>
	<text transform="matrix(4.489660e-11 -1 1 4.489660e-11 174.6963 383.189)" class="st3 st4 st5">glows</text>
</g>
<g>
	<path class="st6" d="M-198.34-274.29h-111.13v-40.26c-10.69-18.06-23.16-36.27-36.12-52.7c-16.39-20.79-25.05-45.76-25.05-72.2
		c0-64.54,52.51-117.05,117.05-117.05s117.04,52.51,117.04,117.05c0,26.46-8.67,51.43-25.06,72.22
		c-11.68,14.82-25.37,34.83-36.74,53.7L-198.34-274.29L-198.34-274.29z"/>
	<g>
		<path class="st2" d="M-212.17-232.22h-84.05c-8.43,0-15.29-6.86-15.29-15.29c0-8.43,6.86-15.29,15.29-15.29h84.05
			c8.43,0,15.29,6.86,15.29,15.29C-196.88-239.08-203.74-232.22-212.17-232.22z"/>
		<path class="st2" d="M-254.17-172.37c-11.74,0-21.68-7.84-24.58-19.01c-15.09-2.19-26.55-15.13-26.55-30.57v-3.5h102.2v3.5
			c0,15.42-11.43,28.36-26.49,30.57C-232.48-180.21-242.42-172.37-254.17-172.37z"/>
	</g>
	<path class="st6" d="M-198.94-269.81h-111.13v-40.26c-10.69-18.06-23.16-36.27-36.12-52.7c-16.39-20.79-25.05-45.76-25.05-72.2
		c0-64.54,52.51-117.05,117.05-117.05s117.04,52.51,117.04,117.05c0,26.46-8.67,51.43-25.06,72.22
		c-11.68,14.82-25.37,34.83-36.74,53.7L-198.94-269.81L-198.94-269.81z M-303.07-276.81h97.13V-311l0.5-0.83
		c11.61-19.35,25.72-40.01,37.74-55.26c15.41-19.54,23.56-43.01,23.56-67.88c0-60.68-49.36-110.05-110.04-110.05
		s-110.05,49.37-110.05,110.05c0,24.85,8.14,48.32,23.55,67.86c13.34,16.93,26.18,35.71,37.13,54.31l0.48,0.82L-303.07-276.81
		L-303.07-276.81z"/>
	<g>
		<path class="st6" d="M-249.81-576.43c-1.66,0-3-1.34-3-3v-52c0-1.66,1.34-3,3-3s3,1.34,3,3v52
			C-246.81-577.77-248.15-576.43-249.81-576.43z"/>
		<path class="st6" d="M-170.13-556.96c-0.53,0-1.07-0.14-1.55-0.44c-1.42-0.86-1.87-2.7-1.01-4.12l26.95-44.47
			c0.86-1.42,2.7-1.87,4.12-1.01c1.42,0.86,1.87,2.7,1.01,4.12l-26.95,44.47C-168.12-557.47-169.11-556.96-170.13-556.96z"/>
		<path class="st6" d="M-120.61-494.19c-1.08,0-2.13-0.59-2.66-1.61c-0.77-1.47-0.2-3.28,1.27-4.05l46.1-24.06
			c1.47-0.77,3.28-0.2,4.05,1.27c0.77,1.47,0.2,3.28-1.27,4.05l-46.1,24.06C-119.67-494.3-120.15-494.19-120.61-494.19z"/>
		<path class="st6" d="M-53.73-420.09c-0.06,0-0.13,0-0.19-0.01l-51.89-3.31c-1.65-0.11-2.91-1.53-2.8-3.19
			c0.11-1.65,1.53-2.9,3.19-2.8l51.89,3.31c1.65,0.11,2.91,1.53,2.8,3.19C-50.84-421.31-52.16-420.09-53.73-420.09z"/>
		<path class="st6" d="M-86.84-315.37c-0.59,0-1.19-0.17-1.71-0.54l-42.66-29.73c-1.36-0.95-1.69-2.82-0.75-4.18
			c0.95-1.36,2.82-1.69,4.18-0.75l42.66,29.73c1.36,0.95,1.69,2.82,0.75,4.18C-84.96-315.82-85.89-315.37-86.84-315.37z"/>
		<path class="st6" d="M-337.06-556.96c-1.01,0-2-0.51-2.57-1.45l-26.95-44.47c-0.86-1.42-0.41-3.26,1.01-4.12s3.26-0.41,4.12,1.01
			l26.95,44.47c0.86,1.42,0.41,3.26-1.01,4.12C-335.99-557.1-336.53-556.96-337.06-556.96z"/>
		<path class="st6" d="M-386.57-494.19c-0.47,0-0.94-0.11-1.39-0.34l-46.1-24.06c-1.47-0.77-2.04-2.58-1.27-4.05
			c0.77-1.47,2.58-2.04,4.05-1.27l46.1,24.06c1.47,0.77,2.04,2.58,1.27,4.05C-384.44-494.78-385.49-494.19-386.57-494.19z"/>
		<path class="st6" d="M-453.45-420.09c-1.57,0-2.89-1.22-2.99-2.81c-0.11-1.65,1.15-3.08,2.8-3.19l51.89-3.31
			c1.66-0.1,3.08,1.15,3.19,2.8c0.11,1.65-1.15,3.08-2.8,3.19l-51.89,3.31C-453.32-420.09-453.39-420.09-453.45-420.09z"/>
		<path class="st6" d="M-420.34-315.37c-0.95,0-1.88-0.45-2.46-1.29c-0.95-1.36-0.61-3.23,0.75-4.18l42.66-29.73
			c1.36-0.95,3.23-0.61,4.18,0.75c0.95,1.36,0.61,3.23-0.75,4.18l-42.66,29.73C-419.15-315.54-419.75-315.37-420.34-315.37z"/>
	</g>
	<g>
		
			<rect x="-286.28" y="-398.69" transform="matrix(0.9768 -0.214 0.214 0.9768 65.493 -68.2084)" class="st1" width="8" height="124.2"/>
		
			<rect x="-289.85" y="-338.77" transform="matrix(0.2096 -0.9778 0.9778 0.2096 148.8226 -486.438)" class="st1" width="126.76" height="7"/>
		<polygon class="st1" points="-260.44,-355.56 -267.44,-382.4 -286.46,-369.67 -289.24,-373.82 -264.37,-390.46 -259.37,-371.3 
			-246.54,-402.54 -235.95,-372.34 -217.22,-380.91 -215.14,-376.36 -238.86,-365.52 -246.91,-388.48 		"/>
	</g>
</g>
<text transform="matrix(4.489660e-11 -1 1 4.489660e-11 -975.2614 -254.4672)" class="st3 st4" style="font-size:186.5799px;">glows</text>
<text transform="matrix(4.489660e-11 -1 1 4.489660e-11 -522.0206 -738.3353)" class="st3 st4" style="font-size:218.9432px;">glows</text>
</svg>
